<svg width="40" height="40" viewBox="0 0 40 40" fill="none" xmlns="http://www.w3.org/2000/svg">
<path d="M6.31481 15.0618C5.13583 15.7 2.04463 17.0032 3.92738 18.6338C4.84709 19.4304 5.87141 20 7.15922 20H14.5078C15.7956 20 16.8199 19.4304 17.7396 18.6338C19.6224 17.0032 16.5312 15.7 15.3522 15.0618C12.5875 13.5653 9.07949 13.5653 6.31481 15.0618Z" stroke="#0E0E0E" stroke-width="1.5"/>
<path d="M14.5835 7.12125C14.5835 9.21324 12.9046 10.9091 10.8335 10.9091C8.76243 10.9091 7.0835 9.21324 7.0835 7.12125C7.0835 5.02927 8.76243 3.33337 10.8335 3.33337C12.9046 3.33337 14.5835 5.02927 14.5835 7.12125Z" stroke="#0E0E0E" stroke-width="1.5"/>
<path d="M6.6665 25C6.6665 30.5286 11.1379 35 16.6665 35L15.2379 32.1429" stroke="#0E0E0E" stroke-width="1.5" stroke-linecap="round" stroke-linejoin="round"/>
<path d="M33.3335 15C33.3335 9.47143 28.8621 5 23.3335 5L24.7621 7.85714" stroke="#0E0E0E" stroke-width="1.5" stroke-linecap="round" stroke-linejoin="round"/>
<path d="M24.6478 31.7285C23.4688 32.3667 20.3776 33.6698 22.2604 35.3004C23.1801 36.097 24.2044 36.6667 25.4922 36.6667H32.8408C34.1286 36.6667 35.1529 36.097 36.0726 35.3004C37.9554 33.6698 34.8642 32.3667 33.6852 31.7285C30.9205 30.2319 27.4125 30.2319 24.6478 31.7285Z" stroke="#0E0E0E" stroke-width="1.5"/>
<path d="M32.9165 23.7879C32.9165 25.8799 31.2376 27.5758 29.1665 27.5758C27.0954 27.5758 25.4165 25.8799 25.4165 23.7879C25.4165 21.6959 27.0954 20 29.1665 20C31.2376 20 32.9165 21.6959 32.9165 23.7879Z" stroke="#0E0E0E" stroke-width="1.5"/>
</svg>
