<svg width="40" height="40" viewBox="0 0 40 40" fill="none" xmlns="http://www.w3.org/2000/svg">
<path d="M4.16699 20C4.16699 12.5361 4.16699 8.80414 6.48573 6.48541C8.80447 4.16667 12.5364 4.16667 20.0003 4.16667C27.4642 4.16667 31.1962 4.16667 33.5149 6.48541C35.8337 8.80414 35.8337 12.5361 35.8337 20C35.8337 27.4639 35.8337 31.1959 33.5149 33.5146C31.1962 35.8333 27.4642 35.8333 20.0003 35.8333C12.5364 35.8333 8.80447 35.8333 6.48573 33.5146C4.16699 31.1959 4.16699 27.4639 4.16699 20Z" stroke="#0E0E0E" stroke-width="1.5"/>
<path d="M10.0003 22.5L12.5003 15L15.6253 22.5M10.0003 22.5L9.16699 25M10.0003 22.5H15.6253M15.6253 22.5L16.667 25" stroke="#0E0E0E" stroke-width="1.5" stroke-linecap="round" stroke-linejoin="round"/>
<path d="M20.833 20V16.1667C20.833 15.8565 20.833 15.7013 20.8738 15.5758C20.9562 15.3221 21.1551 15.1232 21.4088 15.0408C21.5344 15 21.6895 15 21.9997 15H24.1663C25.5471 15 26.6663 16.1193 26.6663 17.5C26.6663 18.8807 25.5471 20 24.1663 20H20.833ZM20.833 20V25" stroke="#0E0E0E" stroke-width="1.5" stroke-linecap="round" stroke-linejoin="round"/>
<path d="M30.833 15V25" stroke="#0E0E0E" stroke-width="1.5" stroke-linecap="round" stroke-linejoin="round"/>
</svg>
