<svg width="32" height="35" viewBox="0 0 32 35" fill="none" xmlns="http://www.w3.org/2000/svg">
<ellipse cx="14.0833" cy="5.75" rx="13.3333" ry="5" stroke="#0E0E0E" stroke-width="1.5"/>
<path d="M5.75 15.4863C6.75263 15.7877 7.87389 16.0359 9.08333 16.2195" stroke="#0E0E0E" stroke-width="1.5" stroke-linecap="round"/>
<path d="M14.0833 22.4167C6.71954 22.4167 0.75 20.1781 0.75 17.4167" stroke="#0E0E0E" stroke-width="1.5" stroke-linecap="round"/>
<path d="M5.75 27.153C6.75263 27.4544 7.87389 27.7026 9.08333 27.8862" stroke="#0E0E0E" stroke-width="1.5" stroke-linecap="round"/>
<path d="M14.0833 34.0833C6.71954 34.0833 0.75 31.8448 0.75 29.0833V5.75M27.4167 5.75V14.9167" stroke="#0E0E0E" stroke-width="1.5" stroke-linecap="round" stroke-linejoin="round"/>
<path d="M20.8835 33.8455L20.5793 34.531L20.5793 34.531L20.8835 33.8455ZM19.305 32.1542L18.6055 32.4247H18.6055L19.305 32.1542ZM30.5277 32.1542L31.2272 32.4247V32.4247L30.5277 32.1542ZM28.9492 33.8455L29.2534 34.531L29.2534 34.531L28.9492 33.8455ZM28.9492 24.9462L29.2534 24.2607V24.2607L28.9492 24.9462ZM30.5277 26.6374L31.2272 26.367V26.367L30.5277 26.6374ZM20.8835 24.9462L20.5793 24.2607H20.5793L20.8835 24.9462ZM19.305 26.6374L18.6055 26.367H18.6055L19.305 26.6374ZM21.2497 24.7083C21.2497 25.1225 21.5855 25.4583 21.9997 25.4583C22.4139 25.4583 22.7497 25.1225 22.7497 24.7083H21.9997H21.2497ZM27.083 24.7083C27.083 25.1225 27.4188 25.4583 27.833 25.4583C28.2472 25.4583 28.583 25.1225 28.583 24.7083H27.833H27.083ZM23.458 24.7083V25.4583H26.3747V24.7083V23.9583H23.458V24.7083ZM26.3747 34.0833V33.3333H23.458V34.0833V34.8333H26.3747V34.0833ZM23.458 34.0833V33.3333C22.7675 33.3333 22.2899 33.3329 21.9168 33.3056C21.5516 33.2789 21.3442 33.2294 21.1877 33.1599L20.8835 33.8455L20.5793 34.531C20.9588 34.6994 21.3592 34.7688 21.8075 34.8016C22.2479 34.8338 22.7895 34.8333 23.458 34.8333V34.0833ZM19.083 29.3958H18.333C18.333 30.1143 18.3327 30.6882 18.3623 31.1534C18.3923 31.6243 18.4552 32.0359 18.6055 32.4247L19.305 32.1542L20.0046 31.8838C19.9329 31.6983 19.8848 31.4587 19.8592 31.058C19.8334 30.6516 19.833 30.1334 19.833 29.3958H19.083ZM20.8835 33.8455L21.1877 33.1599C20.6645 32.9277 20.233 32.4745 20.0046 31.8838L19.305 32.1542L18.6055 32.4247C18.9691 33.3653 19.6732 34.1289 20.5793 34.531L20.8835 33.8455ZM30.7497 29.3958H29.9997C29.9997 30.1334 29.9993 30.6516 29.9734 31.058C29.9479 31.4587 29.8998 31.6983 29.8281 31.8838L30.5277 32.1542L31.2272 32.4247C31.3775 32.0359 31.4404 31.6243 31.4704 31.1534C31.5 30.6882 31.4997 30.1143 31.4997 29.3958H30.7497ZM26.3747 34.0833V34.8333C27.0432 34.8333 27.5848 34.8338 28.0252 34.8016C28.4735 34.7688 28.8739 34.6994 29.2534 34.531L28.9492 33.8455L28.6449 33.1599C28.4885 33.2294 28.2811 33.2789 27.9159 33.3056C27.5428 33.3329 27.0652 33.3333 26.3747 33.3333V34.0833ZM30.5277 32.1542L29.8281 31.8838C29.5997 32.4745 29.1682 32.9277 28.6449 33.1599L28.9492 33.8455L29.2534 34.531C30.1594 34.1289 30.8635 33.3653 31.2272 32.4247L30.5277 32.1542ZM26.3747 24.7083V25.4583C27.0652 25.4583 27.5428 25.4588 27.9159 25.4861C28.2811 25.5128 28.4885 25.5623 28.6449 25.6317L28.9492 24.9462L29.2534 24.2607C28.8739 24.0922 28.4735 24.0228 28.0252 23.9901C27.5848 23.9579 27.0432 23.9583 26.3747 23.9583V24.7083ZM30.7497 29.3958H31.4997C31.4997 28.6774 31.5 28.1035 31.4704 27.6383C31.4404 27.1673 31.3775 26.7558 31.2272 26.367L30.5277 26.6374L29.8281 26.9079C29.8998 27.0934 29.9479 27.333 29.9734 27.7336C29.9993 28.1401 29.9997 28.6582 29.9997 29.3958H30.7497ZM28.9492 24.9462L28.6449 25.6317C29.1682 25.864 29.5997 26.3171 29.8281 26.9079L30.5277 26.6374L31.2272 26.367C30.8635 25.4263 30.1594 24.6628 29.2534 24.2607L28.9492 24.9462ZM23.458 24.7083V23.9583C22.7895 23.9583 22.2479 23.9579 21.8075 23.9901C21.3592 24.0228 20.9588 24.0922 20.5793 24.2607L20.8835 24.9462L21.1877 25.6317C21.3442 25.5623 21.5516 25.5128 21.9168 25.4861C22.2899 25.4588 22.7675 25.4583 23.458 25.4583V24.7083ZM19.083 29.3958H19.833C19.833 28.6582 19.8334 28.1401 19.8592 27.7336C19.8848 27.333 19.9329 27.0934 20.0046 26.9079L19.305 26.6374L18.6055 26.367C18.4552 26.7558 18.3923 27.1673 18.3623 27.6383C18.3327 28.1035 18.333 28.6774 18.333 29.3958H19.083ZM20.8835 24.9462L20.5793 24.2607C19.6732 24.6628 18.9691 25.4263 18.6055 26.367L19.305 26.6374L20.0046 26.9079C20.233 26.3171 20.6645 25.864 21.1877 25.6317L20.8835 24.9462ZM21.9997 24.7083H22.7497V21.8958H21.9997H21.2497V24.7083H21.9997ZM27.833 21.8958H27.083V24.7083H27.833H28.583V21.8958H27.833ZM24.9163 19.0833V19.8333C26.1389 19.8333 27.083 20.7822 27.083 21.8958H27.833H28.583C28.583 19.9028 26.9154 18.3333 24.9163 18.3333V19.0833ZM21.9997 21.8958H22.7497C22.7497 20.7822 23.6938 19.8333 24.9163 19.8333V19.0833V18.3333C22.9172 18.3333 21.2497 19.9028 21.2497 21.8958H21.9997Z" fill="#0E0E0E"/>
</svg>
