<svg width="22" height="20" viewBox="0 0 22 20" fill="none" xmlns="http://www.w3.org/2000/svg">
<path d="M11.75 12.75C9.45833 18.75 3.04167 12.75 0.75 18.75" stroke="#404040" stroke-width="1.5" stroke-linecap="round" stroke-linejoin="round"/>
<path d="M14.25 12.75H15.7513C18.1083 12.75 19.2868 12.75 20.0191 12.0178C20.7513 11.2855 20.7513 10.107 20.7513 7.75V5.75C20.7513 3.39298 20.7513 2.21447 20.0191 1.48223C19.2868 0.75 18.1083 0.75 15.7513 0.75H11.7513C9.39428 0.75 8.21576 0.75 7.48353 1.48223C6.86312 2.10264 6.76838 3.04344 6.75391 4.75" stroke="#404040" stroke-width="1.5" stroke-linecap="round" stroke-linejoin="round"/>
<circle cx="6.25" cy="10.25" r="2.5" stroke="#404040" stroke-width="1.5" stroke-linecap="round" stroke-linejoin="round"/>
<path d="M10.75 4.75H16.75M16.75 8.75H13.75" stroke="#404040" stroke-width="1.5" stroke-linecap="round" stroke-linejoin="round"/>
</svg>
