<svg width="35" height="35" viewBox="0 0 35 35" fill="none" xmlns="http://www.w3.org/2000/svg">
<path d="M9.08301 7.41667V5.75C9.08301 3.39298 9.08301 2.21447 9.81524 1.48223C10.5475 0.75 11.726 0.75 14.083 0.75H20.7497C23.1067 0.75 24.2852 0.75 25.0174 1.48223C25.7497 2.21447 25.7497 3.39298 25.7497 5.75V7.41667C25.7497 9.77369 25.7497 10.9522 25.0174 11.6844C24.2852 12.4167 23.1067 12.4167 20.7497 12.4167H19.083L14.083 15.75V12.4167C11.726 12.4167 10.5475 12.4167 9.81524 11.6844C9.08301 10.9522 9.08301 9.77369 9.08301 7.41667Z" stroke="#0E0E0E" stroke-width="1.5" stroke-linejoin="round"/>
<path d="M3.40006 28.6513C2.35208 29.3533 -0.395656 30.7867 1.2779 32.5804C2.09541 33.4566 3.00592 34.0833 4.15064 34.0833H7.41667H10.6827C11.8274 34.0833 12.7379 33.4566 13.5554 32.5804C15.229 30.7867 12.4813 29.3533 11.4333 28.6513C8.97579 27.0051 5.85755 27.0051 3.40006 28.6513Z" stroke="#0E0E0E" stroke-width="1.5"/>
<path d="M23.4001 28.6513C22.3521 29.3533 19.6043 30.7867 21.2779 32.5804C22.0954 33.4566 23.0059 34.0833 24.1506 34.0833H27.4167H30.6827C31.8274 34.0833 32.7379 33.4566 33.5554 32.5804C35.229 30.7867 32.4813 29.3533 31.4333 28.6513C28.9758 27.0051 25.8575 27.0051 23.4001 28.6513Z" stroke="#0E0E0E" stroke-width="1.5"/>
<path d="M10.7497 19.9166C10.7497 21.7575 9.25729 23.2499 7.41634 23.2499C5.57539 23.2499 4.08301 21.7575 4.08301 19.9166C4.08301 18.0756 5.57539 16.5833 7.41634 16.5833C9.25729 16.5833 10.7497 18.0756 10.7497 19.9166Z" stroke="#0E0E0E" stroke-width="1.5"/>
<path d="M30.7497 19.9166C30.7497 21.7575 29.2573 23.2499 27.4163 23.2499C25.5754 23.2499 24.083 21.7575 24.083 19.9166C24.083 18.0756 25.5754 16.5833 27.4163 16.5833C29.2573 16.5833 30.7497 18.0756 30.7497 19.9166Z" stroke="#0E0E0E" stroke-width="1.5"/>
</svg>
