<svg width="40" height="40" viewBox="0 0 40 40" fill="none" xmlns="http://www.w3.org/2000/svg">
<path d="M23.0635 5.7559H35.9766V5.75687L35.9893 5.7559C36.3066 5.73926 36.6181 5.8492 36.8545 6.06156C37.0612 6.24732 37.1961 6.4983 37.2383 6.77055L37.25 6.88871V31.6729C37.2329 31.9903 37.0909 32.2885 36.8545 32.501C36.6477 32.6868 36.3837 32.7938 36.1084 32.8067H23.0635V37.1817L2.75 33.6827V5.94926L23.0635 2.81351V5.7559ZM22.9121 9.55277H26.1084V11.8028H22.9121V13.9278H26.1084V16.1778H22.9121V18.3028H26.1084V20.5528H22.9199L22.9229 20.8047L22.9375 22.4297L22.9395 22.6778H26.1084V24.9278H22.959L22.9609 25.1797L22.9766 26.8047L22.9785 27.0528H26.1084V29.3028H22.998L23 29.5547L23.0215 31.9161L23.0234 32.1641H36.4258V6.55277H22.9121V9.55277Z" stroke="#0E0E0E" stroke-width="0.5"/>
<path d="M28.1094 9.29875H33.5131V12.0487H28.1094V9.29875ZM28.1094 13.675H33.5131V16.425H28.1094V13.675ZM28.1094 18.0512H33.5131V20.8013H28.1094V18.0512ZM28.1094 22.4275H33.5131V25.1775H28.1094V22.4275ZM28.1094 26.8038H33.5131V29.5537H28.1094V26.8038Z" fill="#0E0E0E"/>
<path fill-rule="evenodd" clip-rule="evenodd" d="M7.93313 13.3413L10.6156 13.1875L12.3019 17.8238L14.2944 12.9963L16.9769 12.8425L13.7194 19.425L16.9769 26.0238L14.1406 25.8325L12.2256 20.8025L10.3094 25.6413L7.70312 25.4113L10.7306 19.5825L7.93313 13.3413Z" fill="#0E0E0E"/>
</svg>
