<svg width="40" height="40" viewBox="0 0 40 40" fill="none" xmlns="http://www.w3.org/2000/svg">
<path d="M11.666 30L11.666 26.6667" stroke="#141B34" stroke-width="1.5" stroke-linecap="round"/>
<path d="M20 30L20 25" stroke="#141B34" stroke-width="1.5" stroke-linecap="round"/>
<path d="M28.334 30L28.334 21.6667" stroke="#141B34" stroke-width="1.5" stroke-linecap="round"/>
<path d="M10 18.4167C9.58579 18.4167 9.25 18.7525 9.25 19.1667C9.25 19.5809 9.58579 19.9167 10 19.9167V19.1667V18.4167ZM27.3179 11.2054C27.5234 10.8458 27.3984 10.3877 27.0388 10.1822C26.6791 9.97664 26.221 10.1016 26.0155 10.4612L26.6667 10.8333L27.3179 11.2054ZM23.2113 9.7513C22.8026 9.81871 22.5259 10.2047 22.5933 10.6134C22.6607 11.0221 23.0467 11.2987 23.4554 11.2313L23.3333 10.4913L23.2113 9.7513ZM25.4461 10.1428L25.324 9.4028V9.4028L25.4461 10.1428ZM27.8031 11.4825L27.0821 11.6891L27.8031 11.4825ZM27.6123 13.5399C27.7264 13.9381 28.1417 14.1684 28.5399 14.0543C28.9381 13.9402 29.1684 13.525 29.0543 13.1268L28.3333 13.3333L27.6123 13.5399ZM27.1236 10.1192L27.4942 9.46721L27.4942 9.4672L27.1236 10.1192ZM10 19.1667V19.9167C17.6742 19.9167 23.8097 17.3446 27.3179 11.2054L26.6667 10.8333L26.0155 10.4612C22.8569 15.9887 17.3258 18.4167 10 18.4167V19.1667ZM23.3333 10.4913L23.4554 11.2313L25.5681 10.8828L25.4461 10.1428L25.324 9.4028L23.2113 9.7513L23.3333 10.4913ZM27.8031 11.4825L27.0821 11.6891L27.6123 13.5399L28.3333 13.3333L29.0543 13.1268L28.5241 11.276L27.8031 11.4825ZM25.4461 10.1428L25.5681 10.8828C26.0303 10.8066 26.3121 10.7613 26.5226 10.7517C26.7156 10.7429 26.7522 10.7709 26.7529 10.7713L27.1236 10.1192L27.4942 9.4672C27.1497 9.2714 26.7917 9.23788 26.4543 9.25328C26.1344 9.26788 25.75 9.33252 25.324 9.4028L25.4461 10.1428ZM27.8031 11.4825L28.5241 11.276C28.4188 10.9084 28.3193 10.5545 28.1928 10.2741C28.053 9.96457 27.8488 9.6688 27.4942 9.46721L27.1236 10.1192L26.7529 10.7713C26.7572 10.7737 26.7584 10.7742 26.764 10.781C26.7729 10.7919 26.7942 10.8217 26.8256 10.8913C26.8968 11.049 26.9645 11.2786 27.0821 11.6891L27.8031 11.4825Z" fill="#141B34"/>
<path d="M4.16602 20C4.16602 12.5361 4.16602 8.80413 6.48475 6.48539C8.80349 4.16666 12.5354 4.16666 19.9993 4.16666C27.4633 4.16666 31.1952 4.16666 33.5139 6.48539C35.8327 8.80413 35.8327 12.5361 35.8327 20C35.8327 27.4639 35.8327 31.1958 33.5139 33.5146C31.1952 35.8333 27.4633 35.8333 19.9993 35.8333C12.5354 35.8333 8.80349 35.8333 6.48475 33.5146C4.16602 31.1958 4.16602 27.4639 4.16602 20Z" stroke="#141B34" stroke-width="1.5"/>
</svg>
