<svg width="64" height="64" viewBox="0 0 64 64" fill="none" xmlns="http://www.w3.org/2000/svg">
<rect width="64" height="64" rx="32" fill="#01E888"/>
<path d="M51.9928 32C51.9928 28.3556 51.1042 25 49.3271 21.9333C47.55 18.8667 45.1286 16.4444 42.0631 14.6667C38.9975 12.8889 35.6876 12 32.1333 12C28.5791 12 25.247 12.8444 22.137 14.5333H19.7378V12H15.8726V20.1333C13.2957 23.6889 12.0073 27.6444 12.0073 32C12.0073 35.6444 12.8959 39 14.673 42.0667C16.4502 45.1333 18.8715 47.5556 21.937 49.3333C25.0026 51.1111 28.3569 52 32.0001 52C34.488 52 36.8427 51.5556 39.0642 50.6667C40.4859 51.5556 41.9964 52 43.5958 52C45.6395 52 47.4611 51.3333 49.0605 50L48.2608 48.9333C46.928 50.0889 45.373 50.6667 43.5958 50.6667C41.641 50.6667 39.9749 49.9778 38.5977 48.6C37.2204 47.2222 36.5317 45.5556 36.5317 43.6C36.5317 41.6444 37.2204 39.9778 38.5977 38.6C39.9749 37.2222 41.641 36.5333 43.5958 36.5333C45.5507 36.5333 47.2167 37.2222 48.594 38.6C49.9713 39.9778 50.6599 41.6444 50.6599 43.6C50.6599 45.2889 50.1712 46.7556 49.1938 48L50.1268 48.9333C51.3708 47.3333 51.9928 45.5556 51.9928 43.6C51.9928 42 51.5485 40.4889 50.6599 39.0667C51.5485 36.8444 51.9928 34.4889 51.9928 32ZM22.2703 18.4H23.6031V27.4667H22.2703V18.4ZM19.7378 15.8667H21.0707V27.4667H19.7378V15.8667ZM17.2054 13.3333H18.405V27.4667H17.2054V13.3333ZM31.3336 50.6667C28.1348 50.5778 25.1803 49.7111 22.4702 48.0667C19.7601 46.4222 17.5831 44.2444 15.9392 41.5333C14.2954 38.8222 13.429 35.8667 13.3402 32.6667H31.3336V50.6667ZM31.3336 31.3333H13.3402C13.429 28.2222 14.2732 25.2889 15.8726 22.5333V28.8H30.0008V22.2667H27.4684V19.7333H24.936V17.2H22.2703V16C25.1137 14.3111 28.1348 13.4222 31.3336 13.3333V31.3333ZM24.936 27.4667V21.0667H26.1355V27.4667H24.936ZM27.4684 27.4667V23.6H28.8012V27.4667H27.4684ZM50.6599 31.3333H45.1953L49.8602 26.6667C50.3934 28.1778 50.6599 29.7333 50.6599 31.3333ZM47.4611 21.4667L40.2637 28.6667L41.1967 29.6L48.1275 22.5333C48.6607 23.4222 49.1049 24.3111 49.4604 25.2L43.3293 31.3333H39.3307L40.1304 30.5333L39.3307 29.6L37.598 31.3333H33.5995L45.7284 19.2C46.3504 19.9111 46.928 20.6667 47.4611 21.4667ZM32.6665 13.3333C34.2659 13.3333 35.8209 13.6 37.3314 14.1333L32.6665 18.8V13.3333ZM32.6665 26.4L40.5303 18.6667L39.5973 17.7333L32.6665 24.6667V20.6667L38.7976 14.5333C39.6861 14.8889 40.5747 15.3333 41.4633 15.8667L40.397 16.9333L41.33 17.8667L42.5296 16.5333C43.3293 17.0667 44.0845 17.6444 44.7954 18.2667L32.6665 30.4V26.4ZM43.5958 35.2C42.0853 35.2 40.6858 35.5778 39.3974 36.3333C38.1089 37.0889 37.0871 38.1111 36.3318 39.4C35.5765 40.6889 35.1989 42.0889 35.1989 43.6C35.1989 44.7556 35.4432 45.8667 35.932 46.9333C36.4207 48 37.0649 48.9333 37.8646 49.7333C36.1763 50.3556 34.4436 50.6667 32.6665 50.6667V32.6667H50.6599C50.6599 34.4444 50.3489 36.1778 49.7269 37.8667C48.9272 37.0667 47.9942 36.4222 46.928 35.9333C45.8617 35.4444 44.751 35.2 43.5958 35.2ZM20.0044 43.2L27.7349 35.4667L28.5346 36.2667L20.8041 44.1333L20.0044 43.2ZM26.8019 40.4C26.2688 40.4 25.8245 40.5778 25.4691 40.9333C25.1137 41.2889 24.936 41.7333 24.936 42.2667C24.936 42.8 25.1137 43.2667 25.4691 43.6667C25.8245 44.0667 26.2688 44.2667 26.8019 44.2667C27.3351 44.2667 27.8016 44.0667 28.2014 43.6667C28.6013 43.2667 28.8012 42.8 28.8012 42.2667C28.8012 41.7333 28.6013 41.2889 28.2014 40.9333C27.8016 40.5778 27.3351 40.4 26.8019 40.4ZM26.8019 42.9333C26.6242 42.9333 26.4687 42.8667 26.3354 42.7333C26.2022 42.6 26.1355 42.4444 26.1355 42.2667C26.1355 42.0889 26.2022 41.9556 26.3354 41.8667C26.4687 41.7778 26.6242 41.7333 26.8019 41.7333C26.9797 41.7333 27.1352 41.7778 27.2684 41.8667C27.4017 41.9556 27.4684 42.0889 27.4684 42.2667C27.4684 42.4444 27.4017 42.6 27.2684 42.7333C27.1352 42.8667 26.9797 42.9333 26.8019 42.9333ZM21.7371 35.2C21.204 35.2 20.7375 35.4 20.3376 35.8C19.9378 36.2 19.7378 36.6667 19.7378 37.2C19.7378 37.7333 19.9378 38.1778 20.3376 38.5333C20.7375 38.8889 21.204 39.0667 21.7371 39.0667C22.2703 39.0667 22.7145 38.8889 23.07 38.5333C23.4254 38.1778 23.6031 37.7333 23.6031 37.2C23.6031 36.6667 23.4254 36.2 23.07 35.8C22.7145 35.4 22.2703 35.2 21.7371 35.2ZM21.7371 37.8667C21.5594 37.8667 21.4039 37.8 21.2706 37.6667C21.1373 37.5333 21.0707 37.3778 21.0707 37.2C21.0707 37.0222 21.1373 36.8667 21.2706 36.7333C21.4039 36.6 21.5594 36.5333 21.7371 36.5333C21.9148 36.5333 22.0481 36.6 22.137 36.7333C22.2258 36.8667 22.2703 37.0222 22.2703 37.2C22.2703 37.3778 22.2258 37.5333 22.137 37.6667C22.0481 37.8 21.9148 37.8667 21.7371 37.8667ZM43.5958 42.9333C43.2404 42.9333 42.9294 42.8222 42.6628 42.6C42.3963 42.3778 42.263 42.0889 42.263 41.7333C42.263 41.3778 42.3963 41.0667 42.6628 40.8C42.9294 40.5333 43.2404 40.4 43.5958 40.4C43.9513 40.4 44.2623 40.5333 44.5288 40.8C44.7954 41.0667 44.9287 41.3778 44.9287 41.7333H46.1283C46.1283 41.1111 45.9505 40.5778 45.5951 40.1333C45.2397 39.6889 44.7954 39.3778 44.2623 39.2V37.8667H42.9294V39.2C42.3963 39.3778 41.952 39.6889 41.5966 40.1333C41.2411 40.5778 41.0634 41.1333 41.0634 41.8C41.0634 42.4667 41.3078 43.0444 41.7965 43.5333C42.2852 44.0222 42.885 44.2667 43.5958 44.2667C43.9513 44.2667 44.2623 44.4 44.5288 44.6667C44.7954 44.9333 44.9287 45.2444 44.9287 45.6C44.9287 45.9556 44.7954 46.2444 44.5288 46.4667C44.2623 46.6889 43.9513 46.8 43.5958 46.8C43.2404 46.8 42.9294 46.6889 42.6628 46.4667C42.3963 46.2444 42.263 45.9556 42.263 45.6H41.0634C41.0634 46.1333 41.2411 46.6444 41.5966 47.1333C41.952 47.6222 42.3963 47.9111 42.9294 48V49.4667H44.2623V48C44.7954 47.9111 45.2397 47.6222 45.5951 47.1333C45.9505 46.6444 46.1283 46.0889 46.1283 45.4667C46.1283 44.8444 45.8839 44.2667 45.3952 43.7333C44.9065 43.2 44.3067 42.9333 43.5958 42.9333ZM48.1275 42.9333H49.4604V44.2667H48.1275V42.9333ZM37.8646 42.9333H39.0642V44.2667H37.8646V42.9333Z" fill="#0E0E0E"/>
</svg>
