<svg width="40" height="40" viewBox="0 0 40 40" fill="none" xmlns="http://www.w3.org/2000/svg">
<path d="M3.33301 20C3.33301 21.7532 3.63378 23.4361 4.18654 25M21.6891 15H35.8356M18.333 25H4.18654M35.8356 15C33.7764 9.17401 28.2202 4.99997 21.6891 4.99997C24.3573 4.99997 26.5374 11.27 26.6815 19.1666M35.8356 15C36.3002 16.3144 36.5867 17.713 36.6663 19.1666M4.18654 25C6.24572 30.826 11.8019 35 18.333 35C15.7594 35 13.6399 29.1666 13.3635 21.6667" stroke="#0E0E0E" stroke-width="1.5" stroke-linecap="round" stroke-linejoin="round"/>
<path d="M3.33301 8.82889C3.33301 6.99828 3.33301 6.08297 3.64532 5.37314C3.97651 4.62037 4.54736 4.01535 5.25761 3.66433C5.92736 3.33333 6.79097 3.33333 8.51819 3.33333H9.99967C13.1424 3.33333 14.7137 3.33333 15.69 4.36808C16.6663 5.40283 16.6663 7.06824 16.6663 10.3991V14.1642C16.6663 15.6171 16.6663 16.3435 16.2262 16.5932C15.7861 16.8428 15.2158 16.4399 14.0752 15.6339L13.9014 15.5111C13.0678 14.9221 12.651 14.6276 12.1786 14.476C11.7062 14.3245 11.2053 14.3245 10.2034 14.3245H8.5182C6.79097 14.3245 5.92736 14.3245 5.25761 13.9935C4.54736 13.6424 3.97651 13.0374 3.64532 12.2847C3.33301 11.5748 3.33301 10.6595 3.33301 8.82889Z" stroke="#0E0E0E" stroke-width="1.5"/>
<path d="M36.6663 28.8289C36.6663 26.9983 36.6663 26.083 36.354 25.3732C36.0228 24.6204 35.452 24.0154 34.7417 23.6643C34.072 23.3333 33.2084 23.3333 31.4812 23.3333H29.9997C26.857 23.3333 25.2856 23.3333 24.3093 24.3681C23.333 25.4028 23.333 27.0683 23.333 30.3991V34.1642C23.333 35.6171 23.333 36.3436 23.7731 36.5932C24.2132 36.8428 24.7836 36.4399 25.9242 35.634L26.098 35.5112C26.9316 34.9222 27.3484 34.6277 27.8208 34.4761C28.2931 34.3245 28.7941 34.3245 29.796 34.3245H31.4812C33.2084 34.3245 34.072 34.3245 34.7417 33.9935C35.452 33.6425 36.0228 33.0374 36.354 32.2847C36.6663 31.5748 36.6663 30.6595 36.6663 28.8289Z" stroke="#0E0E0E" stroke-width="1.5"/>
</svg>
