<svg width="40" height="40" viewBox="0 0 40 40" fill="none" xmlns="http://www.w3.org/2000/svg">
<path d="M10.0678 4.26082C10.4312 4.42665 10.6678 4.78582 10.677 5.18499C10.7103 6.66999 11.2353 7.50749 11.8395 8.34415L12.0078 8.57582C12.5912 9.36832 13.3337 10.3775 13.3337 11.8733C13.3337 12.5886 13.1663 13.294 12.845 13.933C12.5236 14.572 12.0571 15.1269 11.4828 15.5533C12.0137 16.0225 12.3845 16.6117 12.6453 17.2242C13.2287 18.5983 13.3337 20.2783 13.3337 21.6225C13.3337 23.8225 12.9937 27.1892 12.3703 30.0225C12.0595 31.4333 11.6662 32.7725 11.1787 33.7833C10.937 34.2858 10.6445 34.7642 10.2845 35.13C9.92199 35.4983 9.40782 35.8333 8.75366 35.8333C8.09949 35.8333 7.58533 35.4992 7.22283 35.1308C6.86283 34.7642 6.57033 34.2867 6.32783 33.7842C5.83949 32.7733 5.44449 31.4342 5.13366 30.0233C4.50866 27.19 4.16699 23.8233 4.16699 21.6233C4.16699 20.2775 4.27366 18.5975 4.85949 17.2233C5.12033 16.6108 5.49116 16.0233 6.02116 15.5558C5.44583 15.1294 4.97843 14.5741 4.65644 13.9345C4.33445 13.2948 4.16682 12.5886 4.16699 11.8725C4.16699 10.7758 4.30699 9.72332 5.04949 8.49749C5.75449 7.33249 6.97199 6.06499 8.97033 4.40665C9.12106 4.28164 9.30398 4.20165 9.4981 4.17586C9.69222 4.15006 9.88968 4.17951 10.0678 4.26082ZM6.83116 9.57749C6.34783 10.3742 6.25033 11.015 6.25033 11.8733C6.25033 12.5364 6.51372 13.1722 6.98256 13.6411C7.4514 14.1099 8.08728 14.3733 8.75033 14.3733C9.41337 14.3733 10.0493 14.1099 10.5181 13.6411C10.9869 13.1722 11.2503 12.5364 11.2503 11.8733C11.2503 11.0842 10.9078 10.6108 10.2787 9.74165L10.1495 9.56249C9.70199 8.94165 9.21533 8.21082 8.90783 7.22249C7.83949 8.20665 7.20949 8.95249 6.83116 9.57665M6.77616 18.0392C6.36533 19.0017 6.25033 20.3208 6.25033 21.6225C6.25033 23.665 6.57449 26.8825 7.16783 29.5725C7.46616 30.9242 7.81949 32.0808 8.20366 32.8767C8.39699 33.2767 8.57199 33.53 8.70866 33.6683C8.72533 33.6855 8.74032 33.7 8.75366 33.7117C8.76699 33.7005 8.78199 33.6864 8.79866 33.6692C8.93449 33.53 9.10949 33.2775 9.30199 32.8775C9.68533 32.0817 10.0387 30.925 10.3353 29.5733C10.9278 26.8825 11.2503 23.665 11.2503 21.6217C11.2503 20.3192 11.137 19.0008 10.7278 18.0383C10.5295 17.5717 10.2828 17.2408 9.99283 17.0242C9.71449 16.8167 9.32949 16.6658 8.75366 16.6658C8.17782 16.6658 7.79199 16.8167 7.51199 17.0242C7.22199 17.2408 6.97449 17.5742 6.77616 18.0392ZM17.5003 7.91665C16.3227 7.91584 15.1597 8.17776 14.0962 8.68332C13.8684 8.30304 13.6191 7.93606 13.3495 7.58415L13.1912 7.36999C13.0909 7.23297 12.9945 7.09319 12.902 6.95082C14.3227 6.21425 15.9 5.83093 17.5003 5.83332C22.742 5.83332 27.042 9.86665 27.4662 15H30.6253C32.0067 15 33.3314 15.5487 34.3082 16.5255C35.2849 17.5022 35.8337 18.827 35.8337 20.2083V28.9583C35.8337 30.3397 35.2849 31.6644 34.3082 32.6412C33.3314 33.6179 32.0067 34.1667 30.6253 34.1667H21.8753C20.494 34.1667 19.1692 33.6179 18.1925 32.6412C17.2157 31.6644 16.667 30.3397 16.667 28.9583V25.7992C16.0269 25.7463 15.3934 25.6319 14.7753 25.4575C14.8499 24.7498 14.9077 24.0404 14.9487 23.33C15.5055 23.5197 16.0819 23.646 16.667 23.7067V20.2083C16.667 18.827 17.2157 17.5022 18.1925 16.5255C19.1692 15.5487 20.494 15 21.8753 15H25.3737C24.957 11.0192 21.5912 7.91665 17.5003 7.91665ZM30.6253 17.0833H27.4228C27.1446 19.2863 26.1414 21.3342 24.5713 22.9043C23.0012 24.4744 20.9533 25.4776 18.7503 25.7558V28.9583C18.7503 29.7871 19.0796 30.582 19.6656 31.168C20.2517 31.7541 21.0465 32.0833 21.8753 32.0833H30.6253C31.4541 32.0833 32.249 31.7541 32.835 31.168C33.4211 30.582 33.7503 29.7871 33.7503 28.9583V20.2083C33.7503 19.3795 33.4211 18.5847 32.835 17.9986C32.249 17.4126 31.4541 17.0833 30.6253 17.0833ZM18.7503 23.6517C20.3971 23.3872 21.9184 22.61 23.0977 21.4307C24.277 20.2514 25.0542 18.73 25.3187 17.0833H21.8753C21.0465 17.0833 20.2517 17.4126 19.6656 17.9986C19.0796 18.5847 18.7503 19.3795 18.7503 20.2083V23.6517Z" fill="#0E0E0E"/>
</svg>
