<svg width="24" height="24" viewBox="0 0 24 24" fill="none" xmlns="http://www.w3.org/2000/svg">
<circle cx="12" cy="12" r="10" stroke="#0E0E0E"/>
<path d="M12.5 7C12.5 6.72386 12.2761 6.5 12 6.5C11.7239 6.5 11.5 6.72386 11.5 7H12H12.5ZM13.8536 13.1464C13.6583 12.9512 13.3417 12.9512 13.1464 13.1464C12.9512 13.3417 12.9512 13.6583 13.1464 13.8536L13.5 13.5L13.8536 13.1464ZM14.6464 15.3536C14.8417 15.5488 15.1583 15.5488 15.3536 15.3536C15.5488 15.1583 15.5488 14.8417 15.3536 14.6464L15 15L14.6464 15.3536ZM12 7H11.5V10.5H12H12.5V7H12ZM13.5 13.5L13.1464 13.8536L14.6464 15.3536L15 15L15.3536 14.6464L13.8536 13.1464L13.5 13.5ZM13.5 12H13C13 12.5523 12.5523 13 12 13V13.5V14C13.1046 14 14 13.1046 14 12H13.5ZM12 13.5V13C11.4477 13 11 12.5523 11 12H10.5H10C10 13.1046 10.8954 14 12 14V13.5ZM10.5 12H11C11 11.4477 11.4477 11 12 11V10.5V10C10.8954 10 10 10.8954 10 12H10.5ZM12 10.5V11C12.5523 11 13 11.4477 13 12H13.5H14C14 10.8954 13.1046 10 12 10V10.5Z" fill="#0E0E0E"/>
</svg>
