<svg width="40" height="40" viewBox="0 0 40 40" fill="none" xmlns="http://www.w3.org/2000/svg">
<path d="M5.8335 30C5.8335 27.643 5.8335 26.4645 6.56573 25.7322C7.29796 25 8.47647 25 10.8335 25H11.6668C13.2382 25 14.0239 25 14.512 25.4882C15.0002 25.9763 15.0002 26.762 15.0002 28.3333V36.6667H5.8335V30Z" stroke="#0E0E0E" stroke-width="1.5" stroke-linecap="round" stroke-linejoin="round"/>
<path d="M25 31.6667C25 30.0954 25 29.3097 25.4882 28.8215C25.9763 28.3334 26.762 28.3334 28.3333 28.3334H29.1667C31.5237 28.3334 32.7022 28.3334 33.4344 29.0656C34.1667 29.7978 34.1667 30.9764 34.1667 33.3334V36.6667H25V31.6667Z" stroke="#0E0E0E" stroke-width="1.5" stroke-linecap="round" stroke-linejoin="round"/>
<path d="M3.3335 36.6666H36.6668" stroke="#0E0E0E" stroke-width="1.5" stroke-linecap="round" stroke-linejoin="round"/>
<path d="M15 26.6666C15 24.3096 15 23.1311 15.7322 22.3989C16.4645 21.6666 17.643 21.6666 20 21.6666C22.357 21.6666 23.5355 21.6666 24.2678 22.3989C25 23.1311 25 24.3096 25 26.6666V36.6666H15V26.6666Z" stroke="#0E0E0E" stroke-width="1.5" stroke-linecap="round" stroke-linejoin="round"/>
<path d="M21.1519 4.29616L22.3251 6.66196C22.4851 6.99129 22.9117 7.30717 23.2717 7.36766L25.3981 7.72388C26.758 7.95239 27.0779 8.9471 26.098 9.92837L24.4449 11.5952C24.1649 11.8775 24.0116 12.4219 24.0983 12.8117L24.5715 14.875C24.9448 16.5082 24.0849 17.14 22.6518 16.2865L20.6586 15.0968C20.2987 14.8818 19.7054 14.8818 19.3388 15.0968L17.3457 16.2865C15.9192 17.14 15.0526 16.5015 15.4259 14.875L15.8992 12.8117C15.9858 12.4219 15.8325 11.8775 15.5525 11.5952L13.8994 9.92837C12.9262 8.9471 13.2395 7.95239 14.5993 7.72388L16.7257 7.36766C17.079 7.30717 17.5057 6.99129 17.6656 6.66196L18.8388 4.29616C19.4788 3.01245 20.5187 3.01245 21.1519 4.29616Z" stroke="#0E0E0E" stroke-width="1.5" stroke-linecap="round" stroke-linejoin="round"/>
</svg>
