<svg width="40" height="40" viewBox="0 0 40 40" fill="none" xmlns="http://www.w3.org/2000/svg">
<path d="M34.9968 20.8387C34.9968 20.8387 35.0007 20.0563 35.0007 19.1716C35.0007 11.7054 35.0006 7.97225 32.6819 5.6528C30.3632 3.33334 26.6312 3.33334 19.1673 3.33334C11.7034 3.33334 7.97146 3.33334 5.65272 5.6528C3.33398 7.97225 3.33398 11.7054 3.33398 19.1716C3.33398 26.6378 3.33398 30.3709 5.65272 32.6903C7.59707 34.6353 10.5351 34.9493 15.834 35" stroke="#141B34" stroke-width="1.5" stroke-linecap="round"/>
<path d="M3.33398 11.6667L35.0007 11.6667" stroke="#141B34" stroke-width="1.5" stroke-linejoin="round"/>
<path d="M10 26.6667H11.6667M16.6667 20H25M10 20H11.6667" stroke="#141B34" stroke-width="1.5" stroke-linecap="round" stroke-linejoin="round"/>
<path d="M28.334 30.8333H28.349" stroke="#141B34" stroke-width="2" stroke-linecap="round" stroke-linejoin="round"/>
<path d="M36.2866 30.0375C36.54 30.3928 36.6667 30.5704 36.6667 30.8333C36.6667 31.0963 36.54 31.2739 36.2866 31.6292C35.1483 33.2255 32.241 36.6667 28.3333 36.6667C24.4256 36.6667 21.5184 33.2255 20.38 31.6292C20.1267 31.2739 20 31.0963 20 30.8333C20 30.5704 20.1267 30.3928 20.38 30.0375C21.5184 28.4412 24.4256 25 28.3333 25C32.241 25 35.1483 28.4412 36.2866 30.0375Z" stroke="#141B34" stroke-width="1.5"/>
</svg>
