<svg width="917" height="206" viewBox="0 0 917 206" fill="none" xmlns="http://www.w3.org/2000/svg">
<g opacity="0.05">
<path d="M101.773 70.8876H60.3314V142.656C60.3314 147.443 60.6398 151.349 61.2566 154.375C61.8735 157.4 63.1456 159.775 65.0346 161.536C66.9235 163.298 69.4679 164.485 72.7447 165.136C75.9829 165.749 80.2235 166.055 85.4663 166.055H109.021V202.859H88.5889C65.1502 202.859 48.3808 198.684 38.3191 190.374C28.2575 182.064 23.2459 168.2 23.2459 148.86V70.8493H0V37.4544H23.2459L23.2074 6.3573L60.2929 0V37.4544H101.735V70.8493L101.773 70.8876Z" fill="#FEFEFE"/>
<path fill-rule="evenodd" clip-rule="evenodd" d="M204.356 34.3521C215.459 34.3521 225.597 36.2669 234.811 40.1349C244.025 44.0029 251.927 49.3262 258.52 56.2196C265.112 63.0748 270.239 71.232 273.901 80.7296C277.563 90.1889 279.414 100.529 279.414 111.788V127.375H181.226C179.26 120.137 179.106 113.359 181.226 105.546H239.514C238.473 95.1292 234.734 86.7805 228.373 80.4232C221.974 74.0659 214.071 70.8873 204.665 70.8873C194.603 70.8873 186.392 73.9128 179.992 79.9254C162.259 96.6611 161.103 140.434 177.641 158.089C184.541 165.481 193.562 169.157 204.665 169.157C212.606 169.157 219.584 167.166 225.559 163.221C231.534 159.277 235.968 153.341 238.897 145.451H277.833C273.863 164.37 265.382 179.191 252.39 189.914C239.398 200.637 223.4 205.999 204.318 205.999C192.791 205.999 182.267 203.969 172.745 199.91C163.223 195.85 155.05 190.067 148.227 182.599C141.403 175.093 136.199 166.055 132.537 155.447C128.874 144.839 127.024 133.081 127.024 120.175C127.024 107.078 128.874 95.2059 132.537 84.5976C136.199 73.9894 141.403 64.9896 148.072 57.5983C154.78 50.207 162.876 44.5008 172.398 40.4413C181.92 36.3818 192.56 34.3521 204.279 34.3521H204.356Z" fill="#FEFEFE"/>
<path d="M541.672 73.9901H509.329C496.144 73.9901 485.659 78.0496 477.91 86.1685C470.161 94.2874 466.306 105.508 466.306 119.87V203.51H429.259V37.4932H466.306V60.8926C473.014 53.3864 481.032 47.6418 490.323 43.5824C499.652 39.5229 509.637 37.4932 520.315 37.4932H541.672V73.9901Z" fill="#FEFEFE"/>
<path d="M706.67 86.4748C705.012 81.4962 701.697 77.5134 696.762 74.6028C691.828 71.6922 686.045 70.237 679.337 70.237C672.013 70.237 666.192 71.5774 661.912 74.2964C657.633 77.0155 655.475 80.6537 655.475 85.211C655.475 89.7683 657.71 93.2917 662.221 95.6661C666.731 98.0405 672.321 100.185 679.029 102.062C685.737 103.938 693.061 105.853 701.003 107.844C708.944 109.836 716.307 112.67 722.976 116.423C729.684 120.176 735.274 125.155 739.784 131.397C744.295 137.639 746.531 145.835 746.531 156.06C746.531 171.456 740.787 183.634 729.26 192.557C717.733 201.519 701.928 205.961 681.843 205.961C663.84 205.961 648.767 201.289 636.623 191.906C624.48 182.562 617.271 169.426 614.958 152.575H652.969C654.626 157.975 658.096 162.303 663.339 165.52C668.582 168.737 674.865 170.345 682.19 170.345C690.555 170.345 697.109 168.775 701.812 165.673C706.515 162.571 708.867 158.282 708.867 152.882C708.867 147.903 706.631 144.035 702.12 141.354C697.61 138.635 692.02 136.376 685.313 134.499C678.605 132.623 671.28 130.746 663.339 128.869C655.397 126.993 648.034 124.236 641.365 120.597C634.657 116.959 629.067 112.019 624.557 105.776C620.047 99.534 617.811 91.3003 617.811 81.1133C617.811 66.7519 623.401 55.3778 634.619 46.9524C645.837 38.5271 661.064 34.3145 680.34 34.3145C698.15 34.3145 712.76 38.9484 724.171 48.2162C735.582 57.4841 742.329 70.1987 744.449 86.4365H706.747L706.67 86.4748Z" fill="#FEFEFE"/>
<path d="M559.791 37.4932H596.838V202.859H559.791V37.4932Z" fill="#FEFEFE"/>
<path d="M559.791 6.39612L596.838 0.0388184V27.0381H559.791V6.39612Z" fill="#FEFEFE"/>
<path fill-rule="evenodd" clip-rule="evenodd" d="M841.942 34.3533C853.045 34.3533 863.183 36.2682 872.397 40.1361C881.61 44.0041 889.513 49.3274 896.105 56.2208C902.698 63.076 907.825 71.2332 911.487 80.7308C915.149 90.1902 917 100.53 917 111.79V127.376H818.812C816.846 120.138 816.692 113.36 818.812 105.547H877.1C876.059 95.1304 872.32 86.7817 865.959 80.4244C859.56 74.0672 851.657 70.8885 842.25 70.8885C832.189 70.8885 823.978 73.914 817.578 79.9266C799.845 96.6624 798.688 140.436 815.227 158.091C822.127 165.482 831.148 169.158 842.25 169.158C850.192 169.158 857.169 167.167 863.145 163.222C869.12 159.278 873.553 153.342 876.483 145.453H915.419C911.448 164.371 902.967 179.192 889.976 189.915C876.984 200.638 860.986 206 841.903 206C830.377 206 819.853 203.97 810.331 199.911C800.809 195.851 792.636 190.068 785.813 182.601C778.989 175.094 773.785 166.056 770.123 155.448C766.46 144.84 764.61 133.083 764.61 120.177C764.61 107.079 766.46 95.2071 770.123 84.5989C773.785 73.9906 778.989 64.9908 785.658 57.5995C792.366 50.2082 800.462 44.502 809.984 40.4425C819.506 36.3831 830.146 34.3533 841.865 34.3533H841.942Z" fill="#FEFEFE"/>
<path fill-rule="evenodd" clip-rule="evenodd" d="M302.082 204.429C314.957 185.051 343.755 133.848 360.871 121.133C341.904 105.814 316.422 59.2453 302.082 37.4927H346.607C360.948 59.207 387.625 105.814 406.592 121.133C389.514 133.886 359.483 185.051 346.607 204.429H302.082Z" fill="#FEFEFE"/>
</g>
</svg>
