<svg width="36" height="36" viewBox="0 0 36 36" fill="none" xmlns="http://www.w3.org/2000/svg">
<rect width="36" height="36" rx="18" fill="#0E0E0E"/>
<path d="M15.4996 26.3333L15.2907 23.4093C15.1784 21.8372 16.4235 20.5 17.9996 20.5C19.5757 20.5 20.8207 21.8372 20.7085 23.4093L20.4996 26.3333" stroke="#FEFEFE"/>
<path d="M9.95982 19.0112C9.66563 17.0969 9.51854 16.1397 9.88046 15.2912C10.2424 14.4426 11.0453 13.862 12.6513 12.7009L13.8511 11.8333C15.8489 10.3889 16.8478 9.66667 18.0003 9.66667C19.1529 9.66667 20.1517 10.3889 22.1495 11.8333L23.3494 12.7009C24.9553 13.862 25.7583 14.4426 26.1202 15.2912C26.4821 16.1397 26.335 17.0969 26.0408 19.0112L25.79 20.6437C25.3729 23.3574 25.1644 24.7143 24.1912 25.5238C23.2179 26.3333 21.795 26.3333 18.9493 26.3333H17.0513C14.2056 26.3333 12.7827 26.3333 11.8095 25.5238C10.8362 24.7143 10.6277 23.3574 10.2107 20.6437L9.95982 19.0112Z" stroke="#FEFEFE" stroke-linejoin="round"/>
</svg>
