<svg width="34" height="34" viewBox="0 0 34 34" fill="none" xmlns="http://www.w3.org/2000/svg">
<path d="M0.75 16.5833C0.75 9.11943 0.75 5.38748 3.06874 3.06874C5.38748 0.75 9.11943 0.75 16.5833 0.75C24.0472 0.75 27.7792 0.75 30.0979 3.06874C32.4167 5.38748 32.4167 9.11943 32.4167 16.5833C32.4167 24.0472 32.4167 27.7792 30.0979 30.0979C27.7792 32.4167 24.0472 32.4167 16.5833 32.4167C9.11943 32.4167 5.38748 32.4167 3.06874 30.0979C0.75 27.7792 0.75 24.0472 0.75 16.5833Z" stroke="#0E0E0E" stroke-width="1.5"/>
<path d="M0.75 11.5833L32.4167 11.5833" stroke="#0E0E0E" stroke-width="1.5" stroke-linejoin="round"/>
<path d="M8.24968 6.58333H8.26465" stroke="#0E0E0E" stroke-width="1.5" stroke-linecap="round" stroke-linejoin="round"/>
<path d="M14.9157 6.58333H14.9307" stroke="#0E0E0E" stroke-width="1.5" stroke-linecap="round" stroke-linejoin="round"/>
<path d="M23.2497 18.25L25.2939 20.012C26.1533 20.7527 26.583 21.1231 26.583 21.5833C26.583 22.0436 26.1533 22.4139 25.2939 23.1547L23.2497 24.9167" stroke="#0E0E0E" stroke-width="1.5" stroke-linecap="round" stroke-linejoin="round"/>
<path d="M9.91634 18.25L7.87211 20.012C7.01271 20.7527 6.58301 21.1231 6.58301 21.5833C6.58301 22.0436 7.01271 22.4139 7.87211 23.1547L9.91634 24.9167" stroke="#0E0E0E" stroke-width="1.5" stroke-linecap="round" stroke-linejoin="round"/>
<path d="M18.2493 16.5833L14.916 26.5833" stroke="#0E0E0E" stroke-width="1.5" stroke-linecap="round" stroke-linejoin="round"/>
</svg>
