<svg width="40" height="40" viewBox="0 0 40 40" fill="none" xmlns="http://www.w3.org/2000/svg">
<path d="M33.333 16.88C33.333 10.4941 33.333 7.30107 31.3804 5.3172C29.4278 3.33333 26.2851 3.33333 19.9997 3.33333H16.6663C10.3809 3.33333 7.23825 3.33333 5.28563 5.3172C3.33301 7.30107 3.33301 10.4941 3.33301 16.88C3.33301 23.266 3.33301 26.459 5.28563 28.4429C6.0683 29.2381 7.04218 29.7145 8.33301 30" stroke="#0E0E0E" stroke-width="1.5" stroke-linecap="round"/>
<path d="M36.6663 29.1667C36.6663 26.0419 36.6663 24.4795 35.8706 23.3842C35.6136 23.0305 35.3025 22.7194 34.9488 22.4624C33.8535 21.6667 32.2911 21.6667 29.1663 21.6667H20.833C17.7082 21.6667 16.1458 21.6667 15.0506 22.4624C14.6968 22.7194 14.3858 23.0305 14.1288 23.3842C13.333 24.4795 13.333 26.0419 13.333 29.1667C13.333 32.2914 13.333 33.8538 14.1288 34.9491C14.3858 35.3028 14.6968 35.6139 15.0506 35.8709C16.1458 36.6667 17.7082 36.6667 20.833 36.6667H29.1663C32.2911 36.6667 33.8535 36.6667 34.9488 35.8709C35.3025 35.6139 35.6136 35.3028 35.8706 34.9491C36.6663 33.8538 36.6663 32.2914 36.6663 29.1667Z" stroke="#0E0E0E" stroke-width="1.5"/>
<path d="M27.5 26.6667L29.0332 27.9882C29.6777 28.5437 30 28.8215 30 29.1667C30 29.5118 29.6777 29.7896 29.0332 30.3452L27.5 31.6667" stroke="#0E0E0E" stroke-width="1.5" stroke-linecap="round" stroke-linejoin="round"/>
<path d="M22.5 26.6667L20.9668 27.9882C20.3223 28.5437 20 28.8215 20 29.1667C20 29.5118 20.3223 29.7896 20.9668 30.3452L22.5 31.6667" stroke="#0E0E0E" stroke-width="1.5" stroke-linecap="round" stroke-linejoin="round"/>
<path d="M4.16699 10H32.5003" stroke="#0E0E0E" stroke-width="1.5" stroke-linecap="round" stroke-linejoin="round"/>
</svg>
