<svg width="40" height="40" viewBox="0 0 40 40" fill="none" xmlns="http://www.w3.org/2000/svg">
<path d="M20.0002 37.9167C29.8953 37.9167 37.9168 29.8951 37.9168 20C37.9168 10.1049 29.8953 2.08334 20.0002 2.08334C10.1051 2.08334 2.0835 10.1049 2.0835 20C2.0835 29.8951 10.1051 37.9167 20.0002 37.9167Z" stroke="#FEFEFE" stroke-linecap="round" stroke-linejoin="round"/>
<path d="M13.5316 3.28665L15.2274 4.63248L18.7832 5.31582L18.2091 7.17915L16.1907 7.87748L14.3424 10.8592L11.3299 12.7225L7.10656 13.2817L7.01322 14.9583L8.36406 16.4183L8.27072 18.8875L4.51322 16.325L3.42822 13.1775" stroke="#FEFEFE" stroke-linecap="round" stroke-linejoin="round"/>
<path d="M34.6076 30.3767L32.7435 29.1108L31.5326 26.6508L29.1876 22.5183L29.1101 19.8167L27.2935 18.6575L24.7001 18.5142L20.4293 16.6567L19.7468 12.5517L21.5785 10.6108H25.3368L26.6876 12.3342L31.9668 12.7383L35.6801 11.3242M33.0585 7.73332L31.1126 8.94915L28.0385 8.38999L26.1593 7.48999L23.6751 8.25082L21.8735 7.73832L23.0693 5.09832L25.2276 5.20665L27.8318 3.88165M16.9501 37.6575L20.3835 35.8125L23.5926 35.595L25.8901 35.005L28.6393 35.7M7.0293 20.16L10.0885 17.0242L11.346 19.26L15.5851 19.555L17.5726 22.5675H20.1035L19.4051 25.7192L17.0135 27.9708L16.9826 29.7875L14.4826 31.6825L14.5601 34.8192L12.4643 34.0425L11.4076 31.0458L11.4543 24.8967L8.27096 24.3217L7.0293 21.8842V20.16Z" stroke="#FEFEFE" stroke-linecap="round" stroke-linejoin="round"/>
</svg>
