<svg width="40" height="40" viewBox="0 0 40 40" fill="none" xmlns="http://www.w3.org/2000/svg">
<path d="M28.9998 4C28.7346 4 28.4802 4.10536 28.2927 4.29289C28.1052 4.48043 27.9998 4.73478 27.9998 5C27.9998 5.26522 28.1052 5.51957 28.2927 5.70711C28.4802 5.89464 28.7346 6 28.9998 6H32.5858L22.9998 15.586L17.7078 10.292C17.6149 10.1989 17.5046 10.125 17.3831 10.0746C17.2616 10.0242 17.1313 9.99821 16.9998 9.99821C16.8683 9.99821 16.738 10.0242 16.6165 10.0746C16.495 10.125 16.3847 10.1989 16.2918 10.292L6.2918 20.292C6.10402 20.4798 5.99854 20.7344 5.99854 21C5.99854 21.2656 6.10402 21.5202 6.2918 21.708C6.47957 21.8958 6.73425 22.0013 6.9998 22.0013C7.26535 22.0013 7.52003 21.8958 7.7078 21.708L16.9998 12.414L22.2918 17.708C22.3847 17.8011 22.495 17.875 22.6165 17.9254C22.738 17.9758 22.8683 18.0018 22.9998 18.0018C23.1313 18.0018 23.2616 17.9758 23.3831 17.9254C23.5046 17.875 23.6149 17.8011 23.7078 17.708L33.9998 7.414V11C33.9998 11.2652 34.1052 11.5196 34.2927 11.7071C34.4802 11.8946 34.7346 12 34.9998 12C35.265 12 35.5194 11.8946 35.7069 11.7071C35.8944 11.5196 35.9998 11.2652 35.9998 11V5C35.9998 4.73478 35.8944 4.48043 35.7069 4.29289C35.5194 4.10536 35.265 4 34.9998 4H28.9998ZM30.9998 18C30.7346 18 30.4802 18.1054 30.2927 18.2929C30.1052 18.4804 29.9998 18.7348 29.9998 19V35C29.9998 35.2652 30.1052 35.5196 30.2927 35.7071C30.4802 35.8946 30.7346 36 30.9998 36C31.265 36 31.5194 35.8946 31.7069 35.7071C31.8944 35.5196 31.9998 35.2652 31.9998 35V19C31.9998 18.7348 31.8944 18.4804 31.7069 18.2929C31.5194 18.1054 31.265 18 30.9998 18ZM14.9998 22C14.7346 22 14.4802 22.1054 14.2927 22.2929C14.1052 22.4804 13.9998 22.7348 13.9998 23V35C13.9998 35.2652 14.1052 35.5196 14.2927 35.7071C14.4802 35.8946 14.7346 36 14.9998 36C15.265 36 15.5194 35.8946 15.7069 35.7071C15.8944 35.5196 15.9998 35.2652 15.9998 35V23C15.9998 22.7348 15.8944 22.4804 15.7069 22.2929C15.5194 22.1054 15.265 22 14.9998 22ZM21.9998 27C21.9998 26.7348 22.1052 26.4804 22.2927 26.2929C22.4802 26.1054 22.7346 26 22.9998 26C23.265 26 23.5194 26.1054 23.7069 26.2929C23.8944 26.4804 23.9998 26.7348 23.9998 27V35C23.9998 35.2652 23.8944 35.5196 23.7069 35.7071C23.5194 35.8946 23.265 36 22.9998 36C22.7346 36 22.4802 35.8946 22.2927 35.7071C22.1052 35.5196 21.9998 35.2652 21.9998 35V27ZM5.9998 29C5.9998 28.7348 6.10516 28.4804 6.29269 28.2929C6.48023 28.1054 6.73458 28 6.9998 28C7.26501 28 7.51937 28.1054 7.7069 28.2929C7.89444 28.4804 7.9998 28.7348 7.9998 29V35C7.9998 35.2652 7.89444 35.5196 7.7069 35.7071C7.51937 35.8946 7.26501 36 6.9998 36C6.73458 36 6.48023 35.8946 6.29269 35.7071C6.10516 35.5196 5.9998 35.2652 5.9998 35V29Z" fill="#0E0E0E"/>
</svg>
