<svg width="40" height="40" viewBox="0 0 40 40" fill="none" xmlns="http://www.w3.org/2000/svg">
<path d="M26.667 26.6667C27.6938 26.6667 28.5262 25.8139 28.5262 24.7619V22.6937C28.5262 22.1886 28.7221 21.7041 29.0707 21.3469L29.7281 20.6734C30.0911 20.3015 30.0911 19.6985 29.7281 19.3266L29.0707 18.6531C28.7221 18.2959 28.5262 17.8114 28.5262 17.3063V15.2381C28.5262 14.1861 27.6938 13.3333 26.667 13.3333" stroke="#141B34" stroke-width="1.5" stroke-linecap="round" stroke-linejoin="round"/>
<path d="M13.333 26.6667C12.3062 26.6667 11.4738 25.8139 11.4738 24.7619V22.6937C11.4738 22.1886 11.2779 21.7041 10.9293 21.3469L10.2719 20.6734C9.90892 20.3015 9.90892 19.6985 10.2719 19.3266L10.9293 18.6531C11.2779 18.2959 11.4738 17.8114 11.4738 17.3063V15.2381C11.4738 14.1861 12.3062 13.3333 13.333 13.3333" stroke="#141B34" stroke-width="1.5" stroke-linecap="round" stroke-linejoin="round"/>
<path d="M16.666 20H16.681M23.3177 20H23.3327" stroke="#141B34" stroke-width="2" stroke-linecap="round" stroke-linejoin="round"/>
<circle cx="19.9997" cy="20" r="16.6667" stroke="#141B34" stroke-width="1.5"/>
</svg>
