<svg width="40" height="30" viewBox="0 0 40 30" fill="none" xmlns="http://www.w3.org/2000/svg">
<g clip-path="url(#clip0_146_57784)">
<path d="M35.7143 0.937507H20.4762C20.0981 0.937507 19.7714 1.06501 19.5238 1.27688C19.2591 1.05305 18.9203 0.932335 18.5714 0.937507H3.33333C2.50571 0.937507 1.90476 1.52907 1.90476 2.34376V28.5938C1.90476 29.4084 2.50571 30 3.33333 30H18.5714C18.9495 30 19.2762 29.8725 19.5238 29.6606C19.7714 29.8725 20.0981 30 20.4762 30H35.7143C36.5419 30 37.1429 29.4084 37.1429 28.5938V2.34376C37.1429 1.52907 36.5419 0.937507 35.7143 0.937507ZM18.5714 29.0625H3.33333C3.03524 29.0625 2.85714 28.8872 2.85714 28.5938V2.34376C2.85714 2.05032 3.03524 1.87501 3.33333 1.87501H18.5714C18.8695 1.87501 19.0476 2.05032 19.0476 2.34376V28.5938C19.0476 28.8872 18.8695 29.0625 18.5714 29.0625ZM36.1905 28.5938C36.1905 28.8872 36.0124 29.0625 35.7143 29.0625H20.4762C20.1781 29.0625 20 28.8872 20 28.5938V2.34376C20 2.05032 20.1781 1.87501 20.4762 1.87501H35.7143C36.0124 1.87501 36.1905 2.05032 36.1905 2.34376V28.5938ZM38.5714 2.81251C38.4451 2.81251 38.324 2.86189 38.2347 2.9498C38.1454 3.03771 38.0952 3.15694 38.0952 3.28126V27.6563C38.0952 27.7806 38.1454 27.8998 38.2347 27.9877C38.324 28.0756 38.4451 28.125 38.5714 28.125C38.6977 28.125 38.8188 28.0756 38.9081 27.9877C38.9974 27.8998 39.0476 27.7806 39.0476 27.6563V3.28126C39.0476 3.15694 38.9974 3.03771 38.9081 2.9498C38.8188 2.86189 38.6977 2.81251 38.5714 2.81251ZM0.47619 28.125C0.602484 28.125 0.723605 28.0756 0.812908 27.9877C0.902211 27.8998 0.952381 27.7806 0.952381 27.6563V3.28126C0.952381 3.15694 0.902211 3.03771 0.812908 2.9498C0.723605 2.86189 0.602484 2.81251 0.47619 2.81251C0.349897 2.81251 0.228776 2.86189 0.139473 2.9498C0.0501699 3.03771 0 3.15694 0 3.28126L0 27.6563C0 27.7806 0.0501699 27.8998 0.139473 27.9877C0.228776 28.0756 0.349897 28.125 0.47619 28.125Z" fill="#FEFEFE"/>
<path d="M16.6665 9.375H5.23791C5.11162 9.375 4.99049 9.42439 4.90119 9.51229C4.81189 9.6002 4.76172 9.71943 4.76172 9.84375C4.76172 9.96807 4.81189 10.0873 4.90119 10.1752C4.99049 10.2631 5.11162 10.3125 5.23791 10.3125H16.6665C16.7928 10.3125 16.9139 10.2631 17.0032 10.1752C17.0925 10.0873 17.1427 9.96807 17.1427 9.84375C17.1427 9.71943 17.0925 9.6002 17.0032 9.51229C16.9139 9.42439 16.7928 9.375 16.6665 9.375ZM16.6665 13.125H5.23791C5.11162 13.125 4.99049 13.1744 4.90119 13.2623C4.81189 13.3502 4.76172 13.4694 4.76172 13.5938C4.76172 13.7181 4.81189 13.8373 4.90119 13.9252C4.99049 14.0131 5.11162 14.0625 5.23791 14.0625H16.6665C16.7928 14.0625 16.9139 14.0131 17.0032 13.9252C17.0925 13.8373 17.1427 13.7181 17.1427 13.5938C17.1427 13.4694 17.0925 13.3502 17.0032 13.2623C16.9139 13.1744 16.7928 13.125 16.6665 13.125ZM16.6665 5.625H5.23791C5.11162 5.625 4.99049 5.67439 4.90119 5.76229C4.81189 5.8502 4.76172 5.96943 4.76172 6.09375C4.76172 6.21807 4.81189 6.3373 4.90119 6.42521C4.99049 6.51311 5.11162 6.5625 5.23791 6.5625H16.6665C16.7928 6.5625 16.9139 6.51311 17.0032 6.42521C17.0925 6.3373 17.1427 6.21807 17.1427 6.09375C17.1427 5.96943 17.0925 5.8502 17.0032 5.76229C16.9139 5.67439 16.7928 5.625 16.6665 5.625ZM16.6665 16.875H5.23791C5.11162 16.875 4.99049 16.9244 4.90119 17.0123C4.81189 17.1002 4.76172 17.2194 4.76172 17.3438C4.76172 17.4681 4.81189 17.5873 4.90119 17.6752C4.99049 17.7631 5.11162 17.8125 5.23791 17.8125H16.6665C16.7928 17.8125 16.9139 17.7631 17.0032 17.6752C17.0925 17.5873 17.1427 17.4681 17.1427 17.3438C17.1427 17.2194 17.0925 17.1002 17.0032 17.0123C16.9139 16.9244 16.7928 16.875 16.6665 16.875ZM16.6665 20.625H5.23791C5.11162 20.625 4.99049 20.6744 4.90119 20.7623C4.81189 20.8502 4.76172 20.9694 4.76172 21.0938C4.76172 21.2181 4.81189 21.3373 4.90119 21.4252C4.99049 21.5131 5.11162 21.5625 5.23791 21.5625H16.6665C16.7928 21.5625 16.9139 21.5131 17.0032 21.4252C17.0925 21.3373 17.1427 21.2181 17.1427 21.0938C17.1427 20.9694 17.0925 20.8502 17.0032 20.7623C16.9139 20.6744 16.7928 20.625 16.6665 20.625ZM16.6665 24.375H5.23791C5.11162 24.375 4.99049 24.4244 4.90119 24.5123C4.81189 24.6002 4.76172 24.7194 4.76172 24.8438C4.76172 24.9681 4.81189 25.0873 4.90119 25.1752C4.99049 25.2631 5.11162 25.3125 5.23791 25.3125H16.6665C16.7928 25.3125 16.9139 25.2631 17.0032 25.1752C17.0925 25.0873 17.1427 24.9681 17.1427 24.8438C17.1427 24.7194 17.0925 24.6002 17.0032 24.5123C16.9139 24.4244 16.7928 24.375 16.6665 24.375ZM33.8093 9.375H22.3808C22.2545 9.375 22.1334 9.42439 22.044 9.51229C21.9547 9.6002 21.9046 9.71943 21.9046 9.84375C21.9046 9.96807 21.9547 10.0873 22.044 10.1752C22.1334 10.2631 22.2545 10.3125 22.3808 10.3125H33.8093C33.9356 10.3125 34.0568 10.2631 34.1461 10.1752C34.2354 10.0873 34.2855 9.96807 34.2855 9.84375C34.2855 9.71943 34.2354 9.6002 34.1461 9.51229C34.0568 9.42439 33.9356 9.375 33.8093 9.375ZM33.8093 13.125H22.3808C22.2545 13.125 22.1334 13.1744 22.044 13.2623C21.9547 13.3502 21.9046 13.4694 21.9046 13.5938C21.9046 13.7181 21.9547 13.8373 22.044 13.9252C22.1334 14.0131 22.2545 14.0625 22.3808 14.0625H33.8093C33.9356 14.0625 34.0568 14.0131 34.1461 13.9252C34.2354 13.8373 34.2855 13.7181 34.2855 13.5938C34.2855 13.4694 34.2354 13.3502 34.1461 13.2623C34.0568 13.1744 33.9356 13.125 33.8093 13.125ZM33.8093 5.625H22.3808C22.2545 5.625 22.1334 5.67439 22.044 5.76229C21.9547 5.8502 21.9046 5.96943 21.9046 6.09375C21.9046 6.21807 21.9547 6.3373 22.044 6.42521C22.1334 6.51311 22.2545 6.5625 22.3808 6.5625H33.8093C33.9356 6.5625 34.0568 6.51311 34.1461 6.42521C34.2354 6.3373 34.2855 6.21807 34.2855 6.09375C34.2855 5.96943 34.2354 5.8502 34.1461 5.76229C34.0568 5.67439 33.9356 5.625 33.8093 5.625ZM33.8093 16.875H22.3808C22.2545 16.875 22.1334 16.9244 22.044 17.0123C21.9547 17.1002 21.9046 17.2194 21.9046 17.3438C21.9046 17.4681 21.9547 17.5873 22.044 17.6752C22.1334 17.7631 22.2545 17.8125 22.3808 17.8125H33.8093C33.9356 17.8125 34.0568 17.7631 34.1461 17.6752C34.2354 17.5873 34.2855 17.4681 34.2855 17.3438C34.2855 17.2194 34.2354 17.1002 34.1461 17.0123C34.0568 16.9244 33.9356 16.875 33.8093 16.875ZM33.8093 20.625H22.3808C22.2545 20.625 22.1334 20.6744 22.044 20.7623C21.9547 20.8502 21.9046 20.9694 21.9046 21.0938C21.9046 21.2181 21.9547 21.3373 22.044 21.4252C22.1334 21.5131 22.2545 21.5625 22.3808 21.5625H33.8093C33.9356 21.5625 34.0568 21.5131 34.1461 21.4252C34.2354 21.3373 34.2855 21.2181 34.2855 21.0938C34.2855 20.9694 34.2354 20.8502 34.1461 20.7623C34.0568 20.6744 33.9356 20.625 33.8093 20.625ZM33.8093 24.375H22.3808C22.2545 24.375 22.1334 24.4244 22.044 24.5123C21.9547 24.6002 21.9046 24.7194 21.9046 24.8438C21.9046 24.9681 21.9547 25.0873 22.044 25.1752C22.1334 25.2631 22.2545 25.3125 22.3808 25.3125H33.8093C33.9356 25.3125 34.0568 25.2631 34.1461 25.1752C34.2354 25.0873 34.2855 24.9681 34.2855 24.8438C34.2855 24.7194 34.2354 24.6002 34.1461 24.5123C34.0568 24.4244 33.9356 24.375 33.8093 24.375Z" fill="#FEFEFE"/>
</g>
<defs>
<clipPath id="clip0_146_57784">
<rect width="40" height="30" fill="white"/>
</clipPath>
</defs>
</svg>
