<svg width="40" height="40" viewBox="0 0 40 40" fill="none" xmlns="http://www.w3.org/2000/svg">
<path d="M3.33301 21.6667C3.33301 20.0953 3.33301 19.3096 3.82116 18.8215C4.30932 18.3333 5.09499 18.3333 6.66634 18.3333C8.23769 18.3333 9.02336 18.3333 9.51152 18.8215C9.99967 19.3096 9.99967 20.0953 9.99967 21.6667C9.99967 23.238 9.99967 24.0237 9.51152 24.5118C9.02336 25 8.23769 25 6.66634 25C5.09499 25 4.30932 25 3.82116 24.5118C3.33301 24.0237 3.33301 23.238 3.33301 21.6667Z" stroke="#0E0E0E" stroke-width="1.5"/>
<path d="M30 21.6667C30 20.0953 30 19.3096 30.4882 18.8215C30.9763 18.3333 31.762 18.3333 33.3333 18.3333C34.9047 18.3333 35.6904 18.3333 36.1785 18.8215C36.6667 19.3096 36.6667 20.0953 36.6667 21.6667C36.6667 23.238 36.6667 24.0237 36.1785 24.5118C35.6904 25 34.9047 25 33.3333 25C31.762 25 30.9763 25 30.4882 24.5118C30 24.0237 30 23.238 30 21.6667Z" stroke="#0E0E0E" stroke-width="1.5"/>
<path d="M20.0003 11.6665V23.3332M20.0003 31.6665V36.6665M6.66699 18.3333V15C6.66699 9.48445 7.8181 8.33333 13.3337 8.33333M33.3337 18.3333V15C33.3337 9.48445 32.1825 8.33333 26.667 8.33333" stroke="#0E0E0E" stroke-width="1.5" stroke-linecap="round" stroke-linejoin="round"/>
<path d="M24.1663 27.5C24.1663 29.8012 22.3009 31.6667 19.9997 31.6667C17.6985 31.6667 15.833 29.8012 15.833 27.5C15.833 25.1988 17.6985 23.3333 19.9997 23.3333C22.3009 23.3333 24.1663 25.1988 24.1663 27.5Z" stroke="#0E0E0E" stroke-width="1.5"/>
<path d="M16.6663 3.33333H23.333C26.3583 3.33333 26.6663 4.8749 26.6663 7.5C26.6663 10.1251 26.3583 11.6667 23.333 11.6667H16.6663C13.641 11.6667 13.333 10.1251 13.333 7.5C13.333 4.8749 13.641 3.33333 16.6663 3.33333Z" stroke="#0E0E0E" stroke-width="1.5"/>
</svg>
