<svg width="40" height="40" viewBox="0 0 40 40" fill="none" xmlns="http://www.w3.org/2000/svg">
<path d="M39.9855 20C39.9855 16.3556 39.0969 13 37.3198 9.93334C35.5426 6.86667 33.1213 4.44445 30.0557 2.66667C26.9902 0.888889 23.6803 0 20.126 0C16.5718 0 13.2396 0.844444 10.1297 2.53334H7.73052V0H3.86526V8.13334C1.28842 11.6889 0 15.6444 0 20C0 23.6444 0.888566 27 2.6657 30.0667C4.44283 33.1333 6.86417 35.5556 9.92972 37.3333C12.9953 39.1111 16.3496 40 19.9927 40C22.4807 40 24.8354 39.5556 27.0568 38.6667C28.4785 39.5556 29.9891 40 31.5885 40C33.6322 40 35.4538 39.3333 37.0532 38L36.2535 36.9333C34.9206 38.0889 33.3656 38.6667 31.5885 38.6667C29.6337 38.6667 27.9676 37.9778 26.5903 36.6C25.2131 35.2222 24.5244 33.5556 24.5244 31.6C24.5244 29.6444 25.2131 27.9778 26.5903 26.6C27.9676 25.2222 29.6337 24.5333 31.5885 24.5333C33.5434 24.5333 35.2094 25.2222 36.5867 26.6C37.964 27.9778 38.6526 29.6444 38.6526 31.6C38.6526 33.2889 38.1639 34.7556 37.1865 36L38.1195 36.9333C39.3635 35.3333 39.9855 33.5556 39.9855 31.6C39.9855 30 39.5412 28.4889 38.6526 27.0667C39.5412 24.8444 39.9855 22.4889 39.9855 20ZM10.2629 6.4H11.5958V15.4667H10.2629V6.4ZM7.73052 3.86667H9.06337V15.4667H7.73052V3.86667ZM5.19811 1.33334H6.39767V15.4667H5.19811V1.33334ZM19.3263 38.6667C16.1275 38.5778 13.173 37.7111 10.4629 36.0667C7.75274 34.4222 5.57575 32.2444 3.9319 29.5333C2.28806 26.8222 1.42171 23.8667 1.33285 20.6667H19.3263V38.6667ZM19.3263 19.3333H1.33285C1.42171 16.2222 2.26584 13.2889 3.86526 10.5333V16.8H17.9935V10.2667H15.461V7.73333H12.9286V5.2H10.2629V4C13.1063 2.31111 16.1275 1.42222 19.3263 1.33334V19.3333ZM12.9286 15.4667V9.06667H14.1282V15.4667H12.9286ZM15.461 15.4667V11.6H16.7939V15.4667H15.461ZM38.6526 19.3333H33.1879L37.8529 14.6667C38.386 16.1778 38.6526 17.7333 38.6526 19.3333ZM35.4538 9.46667L28.2564 16.6667L29.1894 17.6L36.1202 10.5333C36.6533 11.4222 37.0976 12.3111 37.453 13.2L31.3219 19.3333H27.3234L28.1231 18.5333L27.3234 17.6L25.5907 19.3333H21.5921L33.7211 7.2C34.3431 7.91111 34.9206 8.66667 35.4538 9.46667ZM20.6592 1.33334C22.2586 1.33334 23.8136 1.6 25.3241 2.13334L20.6592 6.8V1.33334ZM20.6592 14.4L28.523 6.66667L27.59 5.73333L20.6592 12.6667V8.66667L26.7903 2.53334C27.6788 2.88889 28.5674 3.33334 29.456 3.86667L28.3897 4.93333L29.3227 5.86667L30.5222 4.53334C31.3219 5.06667 32.0772 5.64445 32.7881 6.26667L20.6592 18.4V14.4ZM31.5885 23.2C30.078 23.2 28.6785 23.5778 27.39 24.3333C26.1016 25.0889 25.0798 26.1111 24.3245 27.4C23.5692 28.6889 23.1916 30.0889 23.1916 31.6C23.1916 32.7556 23.4359 33.8667 23.9246 34.9333C24.4133 36 25.0576 36.9333 25.8573 37.7333C24.169 38.3556 22.4363 38.6667 20.6592 38.6667V20.6667H38.6526C38.6526 22.4444 38.3416 24.1778 37.7196 25.8667C36.9199 25.0667 35.9869 24.4222 34.9206 23.9333C33.8544 23.4444 32.7436 23.2 31.5885 23.2ZM7.99709 31.2L15.7276 23.4667L16.5273 24.2667L8.7968 32.1333L7.99709 31.2ZM14.7946 28.4C14.2615 28.4 13.8172 28.5778 13.4618 28.9333C13.1063 29.2889 12.9286 29.7333 12.9286 30.2667C12.9286 30.8 13.1063 31.2667 13.4618 31.6667C13.8172 32.0667 14.2615 32.2667 14.7946 32.2667C15.3278 32.2667 15.7943 32.0667 16.1941 31.6667C16.594 31.2667 16.7939 30.8 16.7939 30.2667C16.7939 29.7333 16.594 29.2889 16.1941 28.9333C15.7943 28.5778 15.3278 28.4 14.7946 28.4ZM14.7946 30.9333C14.6169 30.9333 14.4614 30.8667 14.3281 30.7333C14.1948 30.6 14.1282 30.4444 14.1282 30.2667C14.1282 30.0889 14.1948 29.9556 14.3281 29.8667C14.4614 29.7778 14.6169 29.7333 14.7946 29.7333C14.9723 29.7333 15.1278 29.7778 15.2611 29.8667C15.3944 29.9556 15.461 30.0889 15.461 30.2667C15.461 30.4444 15.3944 30.6 15.2611 30.7333C15.1278 30.8667 14.9723 30.9333 14.7946 30.9333ZM9.7298 23.2C9.19666 23.2 8.73016 23.4 8.3303 23.8C7.93045 24.2 7.73052 24.6667 7.73052 25.2C7.73052 25.7333 7.93045 26.1778 8.3303 26.5333C8.73016 26.8889 9.19666 27.0667 9.7298 27.0667C10.2629 27.0667 10.7072 26.8889 11.0626 26.5333C11.4181 26.1778 11.5958 25.7333 11.5958 25.2C11.5958 24.6667 11.4181 24.2 11.0626 23.8C10.7072 23.4 10.2629 23.2 9.7298 23.2ZM9.7298 25.8667C9.55208 25.8667 9.39658 25.8 9.2633 25.6667C9.13001 25.5333 9.06337 25.3778 9.06337 25.2C9.06337 25.0222 9.13001 24.8667 9.2633 24.7333C9.39658 24.6 9.55208 24.5333 9.7298 24.5333C9.90751 24.5333 10.0408 24.6 10.1297 24.7333C10.2185 24.8667 10.2629 25.0222 10.2629 25.2C10.2629 25.3778 10.2185 25.5333 10.1297 25.6667C10.0408 25.8 9.90751 25.8667 9.7298 25.8667ZM31.5885 30.9333C31.2331 30.9333 30.9221 30.8222 30.6555 30.6C30.389 30.3778 30.2557 30.0889 30.2557 29.7333C30.2557 29.3778 30.389 29.0667 30.6555 28.8C30.9221 28.5333 31.2331 28.4 31.5885 28.4C31.9439 28.4 32.2549 28.5333 32.5215 28.8C32.7881 29.0667 32.9214 29.3778 32.9214 29.7333H34.1209C34.1209 29.1111 33.9432 28.5778 33.5878 28.1333C33.2324 27.6889 32.7881 27.3778 32.2549 27.2V25.8667H30.9221V27.2C30.389 27.3778 29.9447 27.6889 29.5892 28.1333C29.2338 28.5778 29.0561 29.1333 29.0561 29.8C29.0561 30.4667 29.3005 31.0444 29.7892 31.5333C30.2779 32.0222 30.8777 32.2667 31.5885 32.2667C31.9439 32.2667 32.2549 32.4 32.5215 32.6667C32.7881 32.9333 32.9214 33.2444 32.9214 33.6C32.9214 33.9556 32.7881 34.2444 32.5215 34.4667C32.2549 34.6889 31.9439 34.8 31.5885 34.8C31.2331 34.8 30.9221 34.6889 30.6555 34.4667C30.389 34.2444 30.2557 33.9556 30.2557 33.6H29.0561C29.0561 34.1333 29.2338 34.6444 29.5892 35.1333C29.9447 35.6222 30.389 35.9111 30.9221 36V37.4667H32.2549V36C32.7881 35.9111 33.2324 35.6222 33.5878 35.1333C33.9432 34.6444 34.1209 34.0889 34.1209 33.4667C34.1209 32.8444 33.8766 32.2667 33.3879 31.7333C32.8991 31.2 32.2994 30.9333 31.5885 30.9333ZM36.1202 30.9333H37.453V32.2667H36.1202V30.9333ZM25.8573 30.9333H27.0568V32.2667H25.8573V30.9333Z" fill="#0E0E0E"/>
</svg>
