<svg width="300" height="300" viewBox="0 0 300 300" fill="none" xmlns="http://www.w3.org/2000/svg">
<path d="M183.825 53.9125H116.175C107.997 53.9092 99.8985 55.5173 92.3423 58.645C84.7861 61.7727 77.9202 66.3586 72.1369 72.1407C66.3537 77.9228 61.7664 84.7877 58.6372 92.3433C55.508 99.8989 53.8983 107.997 53.8999 116.175V183.825C53.8966 192.004 55.5052 200.103 58.6336 207.66C61.7621 215.218 66.3491 222.084 72.1325 227.867C77.9159 233.651 84.7824 238.238 92.3394 241.366C99.8965 244.495 107.996 246.103 116.175 246.1H183.825C192.004 246.103 200.103 244.495 207.66 241.366C215.217 238.238 222.084 233.651 227.867 227.867C233.651 222.084 238.238 215.218 241.366 207.66C244.495 200.103 246.103 192.004 246.1 183.825V116.175C246.103 107.996 244.495 99.8965 241.366 92.3395C238.238 84.7824 233.651 77.916 227.867 72.1326C222.084 66.3491 215.217 61.7621 207.66 58.6337C200.103 55.5052 192.004 53.8967 183.825 53.9V53.9125Z" fill="white"/>
<path d="M245.075 194.85H265.312C268.711 194.85 271.97 193.5 274.372 191.097C276.775 188.694 278.125 185.436 278.125 182.037V117.975C278.125 114.577 276.775 111.318 274.372 108.915C271.97 106.512 268.711 105.162 265.312 105.162H245.062M54.9375 194.85H34.6875C33.0049 194.85 31.3389 194.519 29.7844 193.875C28.2299 193.231 26.8174 192.287 25.6277 191.097C24.4379 189.908 23.4942 188.495 22.8503 186.941C22.2064 185.386 21.875 183.72 21.875 182.037V117.975C21.875 114.577 23.2249 111.318 25.6277 108.915C28.0305 106.512 31.2894 105.162 34.6875 105.162H54.9375" fill="white"/>
<path d="M175.375 137.187H200.988H175.375ZM111.562 122.45V148.075V122.45ZM124.375 188.437C131.189 195.201 140.4 198.996 150 198.996C159.6 198.996 168.811 195.201 175.625 188.437" fill="white"/>
<path d="M175.375 137.187H200.988M111.562 122.45V148.075M124.375 188.437C131.189 195.201 140.4 198.996 150 198.996C159.6 198.996 168.811 195.201 175.625 188.437" stroke="black" stroke-width="8.5" stroke-linecap="round" stroke-linejoin="round"/>
</svg>
