<svg width="40" height="40" viewBox="0 0 40 40" fill="none" xmlns="http://www.w3.org/2000/svg">
<path d="M24.0797 27.0667C23.1868 28.3354 22.2143 29.5462 21.168 30.6917C23.9563 33.3967 26.548 34.6633 27.9863 33.8317C29.4247 33.0017 29.623 30.1233 28.6747 26.3583C27.253 26.675 25.7097 26.9167 24.0797 27.0667ZM21.8963 27.21C20.633 27.2614 19.368 27.2614 18.1047 27.21C18.7313 28.03 19.368 28.79 19.9997 29.4817C20.6341 28.7894 21.2663 28.0333 21.8963 27.21ZM30.2963 14.0517C34.738 15.325 37.6397 17.4417 37.6397 19.9967C37.6397 22.5517 34.7397 24.6683 30.298 25.9417C31.4147 30.425 31.0313 33.995 28.8197 35.2717C26.608 36.55 23.3247 35.0967 19.9997 31.8867C16.6763 35.095 13.393 36.55 11.1813 35.2717C8.96966 33.9933 8.58633 30.425 9.70299 25.9417C5.26133 24.6717 2.36133 22.555 2.36133 20C2.36133 17.445 5.26133 15.3283 9.70299 14.055C8.58633 9.57167 8.96966 6.00167 11.1813 4.72333C13.393 3.44667 16.6763 4.9 19.9997 8.11C23.3247 4.9 26.608 3.44667 28.8197 4.72333C31.0313 6.00167 31.4147 9.57167 30.298 14.055M28.6763 13.6417C29.6263 9.875 29.4263 6.99833 27.988 6.16667C26.5497 5.33667 23.958 6.60333 21.1713 9.30833C22.217 10.4539 23.189 11.6647 24.0813 12.9333C25.7113 13.0833 27.2547 13.3233 28.6763 13.6417ZM11.3263 26.3583C10.378 30.125 10.5763 33.0017 12.0163 33.8317C13.4547 34.6617 16.0463 33.3967 18.833 30.6917C17.7872 29.5456 16.8153 28.3342 15.923 27.065C14.3779 26.9263 12.8431 26.6897 11.328 26.3567M18.108 12.7867C19.3714 12.7353 20.6363 12.7353 21.8997 12.7867C21.2986 12.0035 20.6647 11.2462 19.9997 10.5167C19.3663 11.2111 18.7347 11.9689 18.1047 12.79M15.9213 12.935C16.8137 11.6663 17.7856 10.4556 18.8313 9.31C16.0447 6.60333 13.453 5.33667 12.0163 6.16667C10.578 6.99833 10.378 9.87667 11.328 13.6417C12.7497 13.325 14.293 13.085 15.923 12.9333M23.1563 25.4667C24.3431 23.7255 25.3983 21.8982 26.313 20C25.3988 18.1018 24.3442 16.2745 23.158 14.5333C21.057 14.3763 18.9473 14.3763 16.8463 14.5333C15.6589 16.2744 14.6032 18.1017 13.688 20C14.6027 21.8982 15.6579 23.7255 16.8447 25.4667C18.9456 25.6237 21.0554 25.6237 23.1563 25.4667ZM25.298 25.2467C26.3247 25.1133 27.2969 24.945 28.2147 24.7417C27.914 23.8016 27.5737 22.8747 27.1947 21.9633C26.6077 23.083 25.9755 24.1783 25.2997 25.2467M14.7047 14.7517C13.678 14.8861 12.7058 15.055 11.788 15.2583C12.0713 16.1539 12.4119 17.08 12.8097 18.0367C13.3966 16.917 14.0288 15.8217 14.7047 14.7533M11.788 24.7433C12.7058 24.9456 13.678 25.1139 14.7047 25.2483C14.0288 24.18 13.3966 23.0847 12.8097 21.965C12.4301 22.8763 12.0892 23.8032 11.788 24.7433ZM10.158 24.335C10.5947 22.945 11.158 21.4883 11.8413 20.0017C11.1891 18.5943 10.6269 17.1469 10.158 15.6683C6.42299 16.7283 4.02966 18.3417 4.02966 20.0017C4.02966 21.6617 6.42299 23.2733 10.158 24.335ZM28.2163 15.2583C27.2974 15.055 26.3252 14.8861 25.2997 14.7517C25.9755 15.82 26.6077 16.9153 27.1947 18.035C27.5913 17.0794 27.9319 16.1539 28.2163 15.2583ZM29.8447 15.6667C29.4113 17.0567 28.8447 18.5133 28.1613 20C28.8447 21.4867 29.4113 22.9433 29.8447 24.3333C33.5813 23.2717 35.9747 21.66 35.9747 20C35.9747 18.34 33.5813 16.7283 29.8447 15.6667ZM19.9997 23.1317C19.5798 23.1454 19.1615 23.0745 18.7696 22.9233C18.3777 22.7721 18.0201 22.5436 17.7183 22.2514C17.4165 21.9593 17.1764 21.6094 17.0125 21.2226C16.8486 20.8359 16.7641 20.4201 16.7641 20C16.7641 19.5799 16.8486 19.1641 17.0125 18.7774C17.1764 18.3906 17.4165 18.0407 17.7183 17.7486C18.0201 17.4564 18.3777 17.2279 18.7696 17.0767C19.1615 16.9255 19.5798 16.8546 19.9997 16.8683C20.8125 16.8949 21.5833 17.2364 22.1489 17.8208C22.7146 18.4052 23.0308 19.1867 23.0308 20C23.0308 20.8133 22.7146 21.5948 22.1489 22.1792C21.5833 22.7636 20.8125 23.1051 19.9997 23.1317Z" fill="black"/>
</svg>
