<svg width="40" height="40" viewBox="0 0 40 40" fill="none" xmlns="http://www.w3.org/2000/svg">
<path d="M19.9997 12.5H12.4997M12.4997 12.5H9.96301C8.61801 12.5 7.24134 12.8133 6.41301 13.8733C5.52967 15.005 4.58301 16.9317 4.58301 20C4.58301 23.0667 5.52967 24.995 6.41301 26.1267C7.24134 27.1867 8.61801 27.5 9.96301 27.5H12.4997M12.4997 12.5V9.96333C12.4997 8.61833 12.813 7.24166 13.873 6.41333C15.0047 5.53 16.9313 4.58333 19.9997 4.58333C23.0663 4.58333 24.9947 5.53 26.1263 6.41333C27.1863 7.24166 27.4997 8.61833 27.4997 9.96333V12.5M19.9997 27.5H27.4997M27.4997 27.5H30.0347C31.3797 27.5 32.758 27.1867 33.5847 26.1267C34.4697 24.995 35.4163 23.0683 35.4163 20C35.4163 16.9333 34.4697 15.005 33.5863 13.8733C32.758 12.8133 31.3797 12.5 30.0363 12.5H27.4997M27.4997 27.5V30.035C27.4997 31.38 27.1863 32.7583 26.1263 33.585C24.9947 34.47 23.068 35.4167 19.9997 35.4167C16.933 35.4167 15.0047 34.47 13.873 33.5867C12.813 32.7583 12.4997 31.38 12.4997 30.0367V27.5M27.4997 12.5V16.6667C27.4997 17.5507 27.1485 18.3986 26.5234 19.0237C25.8982 19.6488 25.0504 20 24.1663 20H15.833C14.949 20 14.1011 20.3512 13.476 20.9763C12.8509 21.6014 12.4997 22.4493 12.4997 23.3333V27.5" stroke="#0E0E0E" stroke-width="1.5" stroke-linecap="round" stroke-linejoin="round"/>
<path d="M23.75 30.0836C23.9489 30.0836 24.1396 30.1627 24.2803 30.3034C24.4208 30.444 24.5 30.6348 24.5 30.8336C24.4999 31.0324 24.4208 31.2233 24.2803 31.3639C24.1396 31.5045 23.9488 31.5836 23.75 31.5836C23.5512 31.5836 23.3604 31.5045 23.2197 31.3639C23.0792 31.2233 23.0001 31.0324 23 30.8336C23 30.6348 23.0792 30.444 23.2197 30.3034C23.3604 30.1627 23.5511 30.0836 23.75 30.0836ZM16.25 8.41666C16.4489 8.41666 16.6396 8.49573 16.7803 8.63638C16.9209 8.77704 17 8.96774 17 9.16666C17 9.36557 16.9209 9.55628 16.7803 9.69693C16.6396 9.83758 16.4489 9.91666 16.25 9.91666C16.0511 9.91666 15.8604 9.83758 15.7197 9.69693C15.5791 9.55628 15.5 9.36557 15.5 9.16666C15.5 8.96774 15.5791 8.77704 15.7197 8.63638C15.8251 8.53101 15.9586 8.46018 16.1025 8.4313L16.25 8.41666Z" stroke="#0E0E0E"/>
</svg>
