<svg width="30" height="33" viewBox="0 0 30 33" fill="none" xmlns="http://www.w3.org/2000/svg">
<path d="M14.9925 0C14.5363 0 14.08 0.1125 13.6863 0.3375L1.3 7.4875C0.5 7.95 0 8.825 0 9.75V22.725C0 23.6625 0.5 24.525 1.3 24.9875L4.55 26.8625C6.125 27.6375 6.6875 27.6375 7.4 27.6375C9.7375 27.6375 11.075 26.225 11.075 23.775V10.3875C11.075 10.2914 11.0368 10.1992 10.9688 10.1312C10.9008 10.0632 10.8086 10.025 10.7125 10.025H9.15C9.10221 10.0243 9.05477 10.0332 9.01048 10.0512C8.9662 10.0692 8.92597 10.0959 8.89217 10.1297C8.85838 10.1635 8.8317 10.2037 8.81372 10.248C8.79574 10.2923 8.78683 10.3397 8.7875 10.3875V23.7625C8.7875 24.8625 7.65 25.9375 5.8125 25.025L2.4125 23.0625C2.35125 23.0302 2.30015 22.9816 2.26485 22.922C2.22954 22.8624 2.21143 22.7942 2.2125 22.725V9.7625C2.2125 9.6125 2.2875 9.4875 2.4125 9.4125L14.8 2.2625C14.858 2.22584 14.9252 2.20638 14.9937 2.20638C15.0623 2.20638 15.1295 2.22584 15.1875 2.2625L27.575 9.4125C27.7 9.4875 27.775 9.6125 27.775 9.75V22.725C27.775 22.8625 27.7 23 27.5875 23.0625L15.1875 30.225C15.1275 30.2557 15.0611 30.2717 14.9937 30.2717C14.9264 30.2717 14.86 30.2557 14.8 30.225L11.6125 28.3375C11.5697 28.306 11.519 28.287 11.466 28.2826C11.4131 28.2782 11.3599 28.2885 11.3125 28.3125C10.425 28.8125 10.2625 28.875 9.4375 29.1625C9.2375 29.225 8.925 29.35 9.55 29.7L13.6875 32.15C14.0875 32.375 14.5375 32.5 14.9875 32.5C15.45 32.5 15.9 32.375 16.3 32.15L28.7 24.9875C29.5 24.525 30 23.6625 30 22.725V9.7625C30 8.825 29.5 7.9625 28.7 7.5L16.3 0.3375C15.905 0.1125 15.45 0 14.9925 0ZM18.325 10.0075C14.7875 10.0075 12.675 11.5075 12.675 14.0075C12.675 16.72 14.775 17.4675 18.175 17.805C22.2375 18.205 22.55 18.8075 22.55 19.6075C22.55 20.9825 21.4375 21.57 18.825 21.57C15.5375 21.57 14.8125 20.7437 14.575 19.1187C14.5629 19.0348 14.5207 18.9582 14.4564 18.903C14.392 18.8478 14.3098 18.8179 14.225 18.8188H12.6125C12.5197 18.8188 12.4306 18.8556 12.365 18.9213C12.2994 18.9869 12.2625 19.0759 12.2625 19.1687C12.2625 21.2562 13.4 23.7438 18.825 23.7438C22.75 23.7438 25 22.1937 25 19.4937C25 16.8187 23.1875 16.1063 19.3875 15.5938C15.525 15.0938 15.1375 14.8313 15.1375 13.9313C15.1375 13.1813 15.475 12.1938 18.325 12.1938C20.8625 12.1938 21.8125 12.7437 22.2 14.4562C22.2375 14.6187 22.375 14.7437 22.55 14.7437H24.1625C24.2625 14.7437 24.35 14.6937 24.425 14.6187C24.459 14.5822 24.4845 14.5386 24.4996 14.4911C24.5148 14.4435 24.5192 14.3932 24.5125 14.3438C24.2625 11.3938 22.3 10.0075 18.325 10.0075Z" fill="black"/>
</svg>
