<svg width="40" height="40" viewBox="0 0 40 40" fill="none" xmlns="http://www.w3.org/2000/svg">
<path d="M11.667 20V35M28.3337 20V35" stroke="#0E0E0E" stroke-width="1.5" stroke-linecap="round" stroke-linejoin="round"/>
<path d="M5 20H35" stroke="#0E0E0E" stroke-width="1.5" stroke-linecap="round" stroke-linejoin="round"/>
<path d="M4.16699 22.9167C4.16699 16.8277 4.16699 13.7832 6.02198 11.8916C7.87697 10 10.8625 10 16.8337 10H23.167C29.1381 10 32.1237 10 33.9787 11.8916C35.8337 13.7832 35.8337 16.8277 35.8337 22.9167C35.8337 29.0056 35.8337 32.0501 33.9787 33.9417C32.1237 35.8333 29.1381 35.8333 23.167 35.8333H16.8337C10.8625 35.8333 7.87697 35.8333 6.02198 33.9417C4.16699 32.0501 4.16699 29.0056 4.16699 22.9167Z" stroke="#0E0E0E" stroke-width="1.5" stroke-linecap="round"/>
<path d="M27.5 10L27.3344 9.4849C26.5094 6.91816 26.0969 5.63479 25.1148 4.90073C24.1327 4.16667 22.8283 4.16667 20.2193 4.16667H19.7807C17.1717 4.16667 15.8673 4.16667 14.8852 4.90073C13.9031 5.63479 13.4906 6.91816 12.6656 9.4849L12.5 10" stroke="#0E0E0E" stroke-width="1.5"/>
</svg>
