<svg width="40" height="40" viewBox="0 0 40 40" fill="none" xmlns="http://www.w3.org/2000/svg">
<path d="M33.333 28.6436C31.4046 30 28.6842 30 23.2433 30H16.6065C11.1657 30 8.44523 30 6.51684 28.6436C5.80339 28.1418 5.18285 27.5185 4.68328 26.8018C3.33301 24.8647 3.33301 22.1321 3.33301 16.6667C3.33301 11.2013 3.33301 8.46859 4.68328 6.53151C5.18285 5.81485 5.80339 5.19151 6.51684 4.6897C8.44523 3.33334 11.1657 3.33334 16.6065 3.33334" stroke="#0E0E0E" stroke-width="1.5" stroke-linecap="round"/>
<path d="M20 30V36.6667" stroke="#0E0E0E" stroke-width="1.5"/>
<path d="M13.333 36.6667H26.6663" stroke="#0E0E0E" stroke-width="1.5" stroke-linecap="round"/>
<path d="M30.0003 3.33333C33.143 3.33333 34.7144 3.33333 35.6907 4.30964C36.667 5.28595 36.667 6.8573 36.667 10V16.6667C36.667 19.8094 36.667 21.3807 35.6907 22.357C34.7144 23.3333 33.143 23.3333 30.0003 23.3333H28.3337C25.191 23.3333 23.6196 23.3333 22.6433 22.357C21.667 21.3807 21.667 19.8094 21.667 16.6667L21.667 9.99999C21.667 6.8573 21.667 5.28595 22.6433 4.30964C23.6196 3.33333 25.191 3.33333 28.3337 3.33333L30.0003 3.33333Z" stroke="#0E0E0E" stroke-width="1.5" stroke-linecap="round"/>
<path d="M29.167 19.1667H29.182" stroke="#0E0E0E" stroke-width="2" stroke-linecap="round" stroke-linejoin="round"/>
</svg>
