<svg width="35" height="35" viewBox="0 0 35 35" fill="none" xmlns="http://www.w3.org/2000/svg">
<path d="M20.75 0.75H14.0833C8.61795 0.75 5.88526 0.75 3.94818 2.10636C3.23151 2.60817 2.60817 3.23151 2.10636 3.94818C0.75 5.88526 0.75 8.61795 0.75 14.0833C0.75 19.5487 0.75 22.2814 2.10636 24.2185C2.60817 24.9352 3.23151 25.5585 3.94818 26.0603C5.88526 27.4167 8.61795 27.4167 14.0833 27.4167H20.75C26.2154 27.4167 28.9481 27.4167 30.8852 26.0603C31.6018 25.5585 32.2252 24.9352 32.727 24.2185C34.0833 22.2814 34.0833 19.5487 34.0833 14.0833" stroke="#0E0E0E" stroke-width="1.5" stroke-linecap="round"/>
<path d="M28.7991 2.00697C29.2959 1.46872 29.5443 1.1996 29.8083 1.04262C30.4452 0.663839 31.2294 0.652061 31.8769 1.01155C32.1453 1.16053 32.4013 1.42208 32.9134 1.94517C33.4254 2.46827 33.6815 2.72982 33.8273 3.00395C34.1792 3.66541 34.1677 4.46653 33.7969 5.11714C33.6432 5.38677 33.3798 5.64052 32.8529 6.14801L26.5838 12.1862C25.5853 13.1479 25.086 13.6288 24.462 13.8725C23.8381 14.1162 23.1521 14.0983 21.7802 14.0624L21.5936 14.0575C21.1759 14.0466 20.9671 14.0411 20.8457 13.9034C20.7243 13.7656 20.7409 13.5529 20.7741 13.1274L20.7921 12.8964C20.8853 11.699 20.932 11.1003 21.1658 10.5621C21.3996 10.024 21.803 9.58698 22.6096 8.713L28.7991 2.00697Z" stroke="#0E0E0E" stroke-width="1.5" stroke-linejoin="round"/>
<path d="M21.8435 34.0833L21.1454 33.3852C19.5717 31.8115 19.1816 29.4073 20.1769 27.4167" stroke="#0E0E0E" stroke-width="1.5" stroke-linecap="round"/>
<path d="M12.4182 34.0833L13.1163 33.3852C14.69 31.8115 15.0802 29.4073 14.0848 27.4167" stroke="#0E0E0E" stroke-width="1.5" stroke-linecap="round"/>
<path d="M9.08398 34.0833H25.7507" stroke="#0E0E0E" stroke-width="1.5" stroke-linecap="round"/>
<path d="M10.75 14.0833H22.4167" stroke="#0E0E0E" stroke-width="1.5" stroke-linecap="round" stroke-linejoin="round"/>
</svg>
