<svg width="40" height="40" viewBox="0 0 40 40" fill="none" xmlns="http://www.w3.org/2000/svg">
<path d="M4.16699 20C4.16699 12.5361 4.16699 8.80413 6.48573 6.48539C8.80447 4.16666 12.5364 4.16666 20.0003 4.16666C27.4642 4.16666 31.1962 4.16666 33.5149 6.48539C35.8337 8.80413 35.8337 12.5361 35.8337 20C35.8337 27.4639 35.8337 31.1958 33.5149 33.5146C31.1962 35.8333 27.4642 35.8333 20.0003 35.8333C12.5364 35.8333 8.80447 35.8333 6.48573 33.5146C4.16699 31.1958 4.16699 27.4639 4.16699 20Z" stroke="#141B34" stroke-width="1.5"/>
<path d="M14.0247 16.6667C13.6815 15.6957 12.7555 15 11.667 15C10.2863 15 9.16699 16.1193 9.16699 17.5C9.16699 18.8807 10.2863 20 11.667 20C13.0477 20 14.167 21.1193 14.167 22.5C14.167 23.8807 13.0477 25 11.667 25C10.5785 25 9.65244 24.3043 9.30925 23.3333" stroke="#141B34" stroke-width="1.5" stroke-linecap="round"/>
<path d="M20.833 25C19.4523 25 18.333 23.8807 18.333 22.5V17.5C18.333 16.1193 19.4523 15 20.833 15C22.2137 15 23.333 16.1193 23.333 17.5V22.5C23.333 23.8807 22.2137 25 20.833 25ZM20.833 25L23.333 27.5" stroke="#141B34" stroke-width="1.5" stroke-linecap="round"/>
<path d="M27.5 15V21.6667C27.5 23.238 27.5 24.0237 27.9882 24.5118C28.4763 25 29.262 25 30.8333 25" stroke="#141B34" stroke-width="1.5" stroke-linecap="round"/>
</svg>
