<svg width="132" height="30" viewBox="0 0 132 30" fill="none" xmlns="http://www.w3.org/2000/svg">
<path d="M14.6389 10.3173H8.6673V20.7719C8.6673 21.4665 8.70995 22.0412 8.80379 22.4786C8.89763 22.9159 9.07678 23.2676 9.34976 23.5249C9.62275 23.7822 9.98958 23.9537 10.4588 24.048C10.928 24.1424 11.5337 24.1852 12.2929 24.1852H15.6796V29.5455H12.745C9.36683 29.5455 6.96114 28.9365 5.5109 27.7273C4.06066 26.518 3.34408 24.5026 3.34408 21.681V10.3173H0V5.45455H3.34408L3.33555 0.926243L8.67583 0V5.45455H14.6474V10.3173H14.6389Z" fill="#FEFEFF"/>
<path fill-rule="evenodd" clip-rule="evenodd" d="M29.4059 5C31.0012 5 32.4685 5.28302 33.7907 5.84048C35.113 6.39794 36.2561 7.17839 37.2031 8.18182C38.15 9.18525 38.8922 10.3688 39.4211 11.7496C39.95 13.1304 40.2144 14.6398 40.2144 16.2693V18.542H26.0789C25.7974 17.4871 25.7718 16.5009 26.0789 15.3602H34.4732C34.3197 13.8422 33.7907 12.6244 32.8694 11.6981C31.9481 10.7719 30.8135 10.3087 29.4571 10.3087C28.0069 10.3087 26.8296 10.7461 25.9083 11.6295C23.3576 14.0652 23.187 20.446 25.567 23.0189C26.5652 24.0909 27.8618 24.6312 29.4571 24.6312C30.6002 24.6312 31.6069 24.3396 32.4599 23.765C33.3216 23.1904 33.9614 22.3242 34.3794 21.175H39.9841C39.4125 23.9365 38.1926 26.0892 36.3244 27.6501C34.4561 29.211 32.1528 29.9914 29.4059 29.9914C27.7509 29.9914 26.2325 29.6998 24.859 29.1081C23.4855 28.5163 22.3083 27.6758 21.3358 26.5866C20.3547 25.4974 19.604 24.1767 19.0751 22.6329C18.5462 21.0892 18.2817 19.3739 18.2817 17.4957C18.2817 15.5832 18.5462 13.8593 19.0751 12.3156C19.604 10.7719 20.3462 9.45969 21.3102 8.38765C22.2742 7.31561 23.4429 6.47513 24.8163 5.88336C26.1898 5.2916 27.7168 5 29.4059 5Z" fill="#FEFEFF"/>
<path d="M77.9632 10.7719H73.3054C71.403 10.7719 69.9016 11.3637 68.7841 12.5472C67.6665 13.7307 67.112 15.3688 67.112 17.4528V29.6312H61.7803V5.44598H67.112V8.85936C68.076 7.77017 69.2277 6.92969 70.567 6.33792C71.9063 5.74616 73.348 5.45456 74.8836 5.45456H77.9547V10.7719H77.9632Z" fill="#FEFEFF"/>
<path d="M101.713 12.5901C101.474 11.8611 100.996 11.2864 100.288 10.8662C99.5801 10.446 98.7441 10.2316 97.7801 10.2316C96.7223 10.2316 95.8862 10.4288 95.272 10.8233C94.6578 11.2178 94.3422 11.7496 94.3422 12.4099C94.3422 13.0789 94.6663 13.5849 95.3147 13.9365C95.963 14.2882 96.7649 14.5969 97.7374 14.8714C98.7014 15.1458 99.7592 15.4202 100.902 15.7118C102.045 16.0034 103.103 16.4151 104.067 16.964C105.031 17.5129 105.842 18.2333 106.49 19.1424C107.138 20.0515 107.463 21.2521 107.463 22.7358C107.463 24.9743 106.635 26.7496 104.972 28.0532C103.317 29.3568 101.039 30.0086 98.1469 30.0086C95.5535 30.0086 93.3867 29.3225 91.6379 27.9588C89.8891 26.5952 88.8483 24.6827 88.5156 22.2298H93.9839C94.2227 23.0189 94.7261 23.6449 95.4768 24.1166C96.2275 24.5883 97.1317 24.8199 98.1896 24.8199C99.3924 24.8199 100.339 24.5883 101.013 24.1338C101.696 23.6792 102.028 23.0617 102.028 22.2727C102.028 21.5437 101.704 20.9863 101.056 20.5918C100.408 20.1973 99.6057 19.8628 98.6332 19.5883C97.6692 19.3139 96.6114 19.0394 95.4682 18.7736C94.3251 18.4991 93.2673 18.0961 92.3033 17.5729C91.3393 17.0412 90.5289 16.3208 89.8806 15.4117C89.2322 14.5026 88.908 13.3019 88.908 11.8182C88.908 9.72556 89.7185 8.07033 91.3308 6.84391C92.9431 5.6175 95.1355 5 97.908 5C100.467 5 102.574 5.67753 104.212 7.02401C105.859 8.3705 106.823 10.2316 107.13 12.5901H101.704H101.713Z" fill="#FEFEFF"/>
<path d="M80.5737 5.45453H85.9055V29.5454H80.5737V5.45453Z" fill="#FEFEFF"/>
<path d="M80.5737 0.926244L85.9055 0V3.92796H80.5737V0.926244Z" fill="#FEFEFF"/>
<path fill-rule="evenodd" clip-rule="evenodd" d="M121.18 5C122.776 5 124.243 5.28302 125.565 5.84048C126.887 6.39794 128.031 7.17839 128.977 8.18182C129.924 9.18525 130.667 10.3688 131.195 11.7496C131.724 13.1304 131.989 14.6398 131.989 16.2693V18.542H117.853C117.572 17.4871 117.546 16.5009 117.853 15.3602H126.248C126.094 13.8422 125.565 12.6244 124.644 11.6981C123.722 10.7719 122.588 10.3087 121.232 10.3087C119.781 10.3087 118.604 10.7461 117.683 11.6295C115.132 14.0652 114.961 20.446 117.341 23.0189C118.34 24.0909 119.636 24.6312 121.232 24.6312C122.375 24.6312 123.381 24.3396 124.234 23.765C125.096 23.1904 125.736 22.3242 126.154 21.175H131.759C131.187 23.9365 129.967 26.0892 128.099 27.6501C126.231 29.211 123.927 29.9914 121.18 29.9914C119.525 29.9914 118.007 29.6998 116.633 29.1081C115.26 28.5163 114.083 27.6758 113.11 26.5866C112.129 25.4974 111.378 24.1767 110.85 22.6329C110.321 21.0892 110.056 19.3739 110.056 17.4957C110.056 15.5832 110.321 13.8593 110.85 12.3156C111.378 10.7719 112.121 9.45969 113.085 8.38765C114.049 7.31561 115.217 6.47513 116.591 5.88336C117.964 5.2916 119.491 5 121.18 5Z" fill="#FEFEFF"/>
<path fill-rule="evenodd" clip-rule="evenodd" d="M43.4731 29.7684C45.3243 26.9468 49.4703 19.4854 51.9357 17.6329C49.2058 15.4031 45.5376 8.61919 43.4731 5.45453H49.8798C51.9442 8.61919 55.7831 15.4031 58.513 17.6329C56.0561 19.4854 51.731 26.9468 49.8798 29.7684H43.4731Z" fill="#01E888"/>
</svg>
