<svg width="64" height="64" viewBox="0 0 64 64" fill="none" xmlns="http://www.w3.org/2000/svg">
<rect width="64" height="64" rx="32" fill="#01E888"/>
<mask id="path-2-inside-1_146_57146" fill="white">
<path d="M46.5281 18.2667H51.1931C51.4596 18.2667 51.6596 18.1778 51.7929 18C51.9261 17.8222 51.9928 17.6444 51.9928 17.4667V12.8C51.9928 12.5333 51.9261 12.3333 51.7929 12.2C51.6596 12.0667 51.4596 12 51.1931 12H46.5281C46.3504 12 46.1727 12.0667 45.995 12.2C45.8173 12.3333 45.7284 12.5333 45.7284 12.8V14.2667H35.0656V12.8C35.0656 12.5333 34.999 12.3333 34.8657 12.2C34.7324 12.0667 34.5325 12 34.2659 12H29.7342C29.4676 12 29.2677 12.0667 29.1344 12.2C29.0011 12.3333 28.9345 12.5333 28.9345 12.8V14.2667H18.2717V12.8C18.2717 12.5333 18.1829 12.3333 18.0051 12.2C17.8274 12.0667 17.6497 12 17.472 12H12.807C12.5405 12 12.3405 12.0667 12.2073 12.2C12.074 12.3333 12.0073 12.5333 12.0073 12.8V17.4667C12.0073 17.6444 12.074 17.8222 12.2073 18C12.3405 18.1778 12.5405 18.2667 12.807 18.2667H17.472C17.6497 18.2667 17.8274 18.1778 18.0051 18C18.1829 17.8222 18.2717 17.6444 18.2717 17.4667V15.8667H24.6694C22.3591 16.9333 20.3598 18.4444 18.6716 20.4C17.3387 21.9111 16.3169 23.6 15.606 25.4667C14.8952 27.3333 14.4953 29.2444 14.4065 31.2H12.807C12.5405 31.2 12.3405 31.2889 12.2073 31.4667C12.074 31.6444 12.0073 31.8222 12.0073 32V36.6667C12.0073 36.8444 12.074 37.0222 12.2073 37.2C12.3405 37.3778 12.5405 37.4667 12.807 37.4667H17.472C17.6497 37.4667 17.8274 37.3778 18.0051 37.2C18.1829 37.0222 18.2717 36.8444 18.2717 36.6667V32C18.2717 31.8222 18.1829 31.6444 18.0051 31.4667C17.8274 31.2889 17.6497 31.2 17.472 31.2H15.8726C16.0503 28.8 16.7167 26.5333 17.8719 24.4C19.027 22.2667 20.5598 20.4889 22.4702 19.0667C24.3806 17.6444 26.5354 16.6667 28.9345 16.1333V17.4667C28.9345 17.6444 29.0011 17.8222 29.1344 18C29.2677 18.1778 29.4676 18.2667 29.7342 18.2667H34.2659C34.5325 18.2667 34.7324 18.1778 34.8657 18C34.999 17.8222 35.0656 17.6444 35.0656 17.4667V16.1333C37.4647 16.6667 39.6195 17.6444 41.5299 19.0667C43.4403 20.4889 44.9731 22.2667 46.1283 24.4C47.2834 26.5333 47.9498 28.8 48.1275 31.2H46.5281C46.3504 31.2 46.1727 31.2889 45.995 31.4667C45.8173 31.6444 45.7284 31.8222 45.7284 32V36.6667C45.7284 36.8444 45.8173 37.0222 45.995 37.2C46.1727 37.3778 46.3504 37.4667 46.5281 37.4667H51.1931C51.4596 37.4667 51.6596 37.3778 51.7929 37.2C51.9261 37.0222 51.9928 36.8444 51.9928 36.6667V32C51.9928 31.8222 51.9261 31.6444 51.7929 31.4667C51.6596 31.2889 51.4596 31.2 51.1931 31.2H49.5937C49.5048 29.2444 49.1049 27.3333 48.3941 25.4667C47.6832 23.6 46.6614 21.9111 45.3285 20.4C43.6403 18.4444 41.641 16.9333 39.3307 15.8667H45.7284V17.4667C45.7284 17.6444 45.8173 17.8222 45.995 18C46.1727 18.1778 46.3504 18.2667 46.5281 18.2667ZM16.6723 16.6667H13.6067V13.6H16.6723V16.6667ZM16.6723 35.8667H13.6067V32.8H16.6723V35.8667ZM50.3934 35.8667H47.3278V32.8H50.3934V35.8667ZM33.5995 16.6667H30.4006V13.6H33.5995V16.6667ZM47.3278 13.6H50.3934V16.6667H47.3278V13.6ZM32.6665 20.6667C32.4888 20.4 32.2666 20.2667 32.0001 20.2667C31.7335 20.2667 31.5113 20.4 31.3336 20.6667L28.1348 26.5333C27.9571 26.7111 27.9127 26.9111 28.0015 27.1333C28.0904 27.3556 28.2236 27.5111 28.4014 27.6C28.5791 27.6889 28.779 27.7111 29.0011 27.6667C29.2233 27.6222 29.3788 27.4667 29.4676 27.2L31.2003 24V29.7333C30.6672 29.9111 30.2229 30.2444 29.8675 30.7333C29.5121 31.2222 29.3344 31.8 29.3344 32.4667C29.3344 33.1333 29.6009 33.7111 30.1341 34.2C30.6672 34.6889 31.2892 34.9333 32.0001 34.9333C32.7109 34.9333 33.3329 34.6889 33.866 34.2C34.3992 33.7111 34.6658 33.1333 34.6658 32.4667C34.6658 31.8 34.488 31.2222 34.1326 30.7333C33.7772 30.2444 33.3329 29.9111 32.7998 29.7333V24L38.1312 33.7333C36.354 35.6 35.1989 37.7778 34.6658 40.2667H29.3344C28.8012 37.7778 27.6461 35.6 25.8689 33.7333L26.8019 32.1333C26.8908 31.9556 26.8908 31.7556 26.8019 31.5333C26.7131 31.3111 26.5798 31.1556 26.4021 31.0667C26.2244 30.9778 26.0467 30.9556 25.8689 31C25.6912 31.0444 25.5135 31.1556 25.3358 31.3333L24.2695 33.4667C24.003 33.8222 24.0474 34.1778 24.4028 34.5333C26.0911 36.0444 27.2018 37.9556 27.7349 40.2667H26.9352C26.3132 40.2667 25.7801 40.4889 25.3358 40.9333C24.8915 41.3778 24.6694 41.9556 24.6694 42.6667C24.6694 43.1111 24.7805 43.5111 25.0026 43.8667C25.2247 44.2222 25.5135 44.4889 25.8689 44.6667V51.2C25.8689 51.4667 25.9578 51.6667 26.1355 51.8C26.3132 51.9333 26.5132 52 26.7353 52C26.9574 52 27.1352 51.9333 27.2684 51.8C27.4017 51.6667 27.4684 51.4667 27.4684 51.2V44.9333H36.5317V51.2C36.5317 51.4667 36.5984 51.6667 36.7317 51.8C36.865 51.9333 37.0427 52 37.2648 52C37.4869 52 37.6869 51.9333 37.8646 51.8C38.0423 51.6667 38.1312 51.4667 38.1312 51.2V44.6667C38.4866 44.4889 38.7754 44.2222 38.9975 43.8667C39.2197 43.5111 39.3307 43.1111 39.3307 42.6667C39.3307 41.9556 39.1086 41.3778 38.6643 40.9333C38.22 40.4889 37.6869 40.2667 37.0649 40.2667H36.2652C36.7983 37.9556 37.909 36.0444 39.5973 34.5333C39.9527 34.1778 39.9971 33.8222 39.7306 33.4667L32.6665 20.6667ZM32.0001 33.4667C31.7335 33.4667 31.4891 33.3556 31.267 33.1333C31.0448 32.9111 30.9338 32.6444 30.9338 32.3333C30.9338 32.0222 31.0448 31.7556 31.267 31.5333C31.4891 31.3111 31.7335 31.2 32.0001 31.2C32.2666 31.2 32.511 31.3111 32.7331 31.5333C32.9553 31.7556 33.0663 32.0222 33.0663 32.3333C33.0663 32.6444 32.9553 32.9111 32.7331 33.1333C32.511 33.3556 32.2666 33.4667 32.0001 33.4667ZM37.8646 42.6667C37.8646 42.8444 37.7757 43.0222 37.598 43.2C37.4203 43.3778 37.2426 43.4667 37.0649 43.4667H26.9352C26.7575 43.4667 26.5798 43.3778 26.4021 43.2C26.2244 43.0222 26.1355 42.8222 26.1355 42.6C26.1355 42.3778 26.2244 42.2 26.4021 42.0667C26.5798 41.9333 26.7575 41.8667 26.9352 41.8667H37.0649C37.2426 41.8667 37.4203 41.9333 37.598 42.0667C37.7757 42.2 37.8646 42.4 37.8646 42.6667ZM27.3351 30.1333C27.6017 30.1333 27.8016 30.0667 27.9349 29.9333C28.0682 29.8 28.1348 29.6222 28.1348 29.4C28.1348 29.1778 28.0682 28.9778 27.9349 28.8C27.8016 28.6222 27.6239 28.5333 27.4017 28.5333C27.1796 28.5333 26.9797 28.6222 26.8019 28.8C26.6242 28.9778 26.5354 29.1778 26.5354 29.4C26.5354 29.6222 26.6242 29.8 26.8019 29.9333C26.9797 30.0667 27.1574 30.1333 27.3351 30.1333Z"/>
</mask>
<path d="M46.5281 18.2667H51.1931C51.4596 18.2667 51.6596 18.1778 51.7929 18C51.9261 17.8222 51.9928 17.6444 51.9928 17.4667V12.8C51.9928 12.5333 51.9261 12.3333 51.7929 12.2C51.6596 12.0667 51.4596 12 51.1931 12H46.5281C46.3504 12 46.1727 12.0667 45.995 12.2C45.8173 12.3333 45.7284 12.5333 45.7284 12.8V14.2667H35.0656V12.8C35.0656 12.5333 34.999 12.3333 34.8657 12.2C34.7324 12.0667 34.5325 12 34.2659 12H29.7342C29.4676 12 29.2677 12.0667 29.1344 12.2C29.0011 12.3333 28.9345 12.5333 28.9345 12.8V14.2667H18.2717V12.8C18.2717 12.5333 18.1829 12.3333 18.0051 12.2C17.8274 12.0667 17.6497 12 17.472 12H12.807C12.5405 12 12.3405 12.0667 12.2073 12.2C12.074 12.3333 12.0073 12.5333 12.0073 12.8V17.4667C12.0073 17.6444 12.074 17.8222 12.2073 18C12.3405 18.1778 12.5405 18.2667 12.807 18.2667H17.472C17.6497 18.2667 17.8274 18.1778 18.0051 18C18.1829 17.8222 18.2717 17.6444 18.2717 17.4667V15.8667H24.6694C22.3591 16.9333 20.3598 18.4444 18.6716 20.4C17.3387 21.9111 16.3169 23.6 15.606 25.4667C14.8952 27.3333 14.4953 29.2444 14.4065 31.2H12.807C12.5405 31.2 12.3405 31.2889 12.2073 31.4667C12.074 31.6444 12.0073 31.8222 12.0073 32V36.6667C12.0073 36.8444 12.074 37.0222 12.2073 37.2C12.3405 37.3778 12.5405 37.4667 12.807 37.4667H17.472C17.6497 37.4667 17.8274 37.3778 18.0051 37.2C18.1829 37.0222 18.2717 36.8444 18.2717 36.6667V32C18.2717 31.8222 18.1829 31.6444 18.0051 31.4667C17.8274 31.2889 17.6497 31.2 17.472 31.2H15.8726C16.0503 28.8 16.7167 26.5333 17.8719 24.4C19.027 22.2667 20.5598 20.4889 22.4702 19.0667C24.3806 17.6444 26.5354 16.6667 28.9345 16.1333V17.4667C28.9345 17.6444 29.0011 17.8222 29.1344 18C29.2677 18.1778 29.4676 18.2667 29.7342 18.2667H34.2659C34.5325 18.2667 34.7324 18.1778 34.8657 18C34.999 17.8222 35.0656 17.6444 35.0656 17.4667V16.1333C37.4647 16.6667 39.6195 17.6444 41.5299 19.0667C43.4403 20.4889 44.9731 22.2667 46.1283 24.4C47.2834 26.5333 47.9498 28.8 48.1275 31.2H46.5281C46.3504 31.2 46.1727 31.2889 45.995 31.4667C45.8173 31.6444 45.7284 31.8222 45.7284 32V36.6667C45.7284 36.8444 45.8173 37.0222 45.995 37.2C46.1727 37.3778 46.3504 37.4667 46.5281 37.4667H51.1931C51.4596 37.4667 51.6596 37.3778 51.7929 37.2C51.9261 37.0222 51.9928 36.8444 51.9928 36.6667V32C51.9928 31.8222 51.9261 31.6444 51.7929 31.4667C51.6596 31.2889 51.4596 31.2 51.1931 31.2H49.5937C49.5048 29.2444 49.1049 27.3333 48.3941 25.4667C47.6832 23.6 46.6614 21.9111 45.3285 20.4C43.6403 18.4444 41.641 16.9333 39.3307 15.8667H45.7284V17.4667C45.7284 17.6444 45.8173 17.8222 45.995 18C46.1727 18.1778 46.3504 18.2667 46.5281 18.2667ZM16.6723 16.6667H13.6067V13.6H16.6723V16.6667ZM16.6723 35.8667H13.6067V32.8H16.6723V35.8667ZM50.3934 35.8667H47.3278V32.8H50.3934V35.8667ZM33.5995 16.6667H30.4006V13.6H33.5995V16.6667ZM47.3278 13.6H50.3934V16.6667H47.3278V13.6ZM32.6665 20.6667C32.4888 20.4 32.2666 20.2667 32.0001 20.2667C31.7335 20.2667 31.5113 20.4 31.3336 20.6667L28.1348 26.5333C27.9571 26.7111 27.9127 26.9111 28.0015 27.1333C28.0904 27.3556 28.2236 27.5111 28.4014 27.6C28.5791 27.6889 28.779 27.7111 29.0011 27.6667C29.2233 27.6222 29.3788 27.4667 29.4676 27.2L31.2003 24V29.7333C30.6672 29.9111 30.2229 30.2444 29.8675 30.7333C29.5121 31.2222 29.3344 31.8 29.3344 32.4667C29.3344 33.1333 29.6009 33.7111 30.1341 34.2C30.6672 34.6889 31.2892 34.9333 32.0001 34.9333C32.7109 34.9333 33.3329 34.6889 33.866 34.2C34.3992 33.7111 34.6658 33.1333 34.6658 32.4667C34.6658 31.8 34.488 31.2222 34.1326 30.7333C33.7772 30.2444 33.3329 29.9111 32.7998 29.7333V24L38.1312 33.7333C36.354 35.6 35.1989 37.7778 34.6658 40.2667H29.3344C28.8012 37.7778 27.6461 35.6 25.8689 33.7333L26.8019 32.1333C26.8908 31.9556 26.8908 31.7556 26.8019 31.5333C26.7131 31.3111 26.5798 31.1556 26.4021 31.0667C26.2244 30.9778 26.0467 30.9556 25.8689 31C25.6912 31.0444 25.5135 31.1556 25.3358 31.3333L24.2695 33.4667C24.003 33.8222 24.0474 34.1778 24.4028 34.5333C26.0911 36.0444 27.2018 37.9556 27.7349 40.2667H26.9352C26.3132 40.2667 25.7801 40.4889 25.3358 40.9333C24.8915 41.3778 24.6694 41.9556 24.6694 42.6667C24.6694 43.1111 24.7805 43.5111 25.0026 43.8667C25.2247 44.2222 25.5135 44.4889 25.8689 44.6667V51.2C25.8689 51.4667 25.9578 51.6667 26.1355 51.8C26.3132 51.9333 26.5132 52 26.7353 52C26.9574 52 27.1352 51.9333 27.2684 51.8C27.4017 51.6667 27.4684 51.4667 27.4684 51.2V44.9333H36.5317V51.2C36.5317 51.4667 36.5984 51.6667 36.7317 51.8C36.865 51.9333 37.0427 52 37.2648 52C37.4869 52 37.6869 51.9333 37.8646 51.8C38.0423 51.6667 38.1312 51.4667 38.1312 51.2V44.6667C38.4866 44.4889 38.7754 44.2222 38.9975 43.8667C39.2197 43.5111 39.3307 43.1111 39.3307 42.6667C39.3307 41.9556 39.1086 41.3778 38.6643 40.9333C38.22 40.4889 37.6869 40.2667 37.0649 40.2667H36.2652C36.7983 37.9556 37.909 36.0444 39.5973 34.5333C39.9527 34.1778 39.9971 33.8222 39.7306 33.4667L32.6665 20.6667ZM32.0001 33.4667C31.7335 33.4667 31.4891 33.3556 31.267 33.1333C31.0448 32.9111 30.9338 32.6444 30.9338 32.3333C30.9338 32.0222 31.0448 31.7556 31.267 31.5333C31.4891 31.3111 31.7335 31.2 32.0001 31.2C32.2666 31.2 32.511 31.3111 32.7331 31.5333C32.9553 31.7556 33.0663 32.0222 33.0663 32.3333C33.0663 32.6444 32.9553 32.9111 32.7331 33.1333C32.511 33.3556 32.2666 33.4667 32.0001 33.4667ZM37.8646 42.6667C37.8646 42.8444 37.7757 43.0222 37.598 43.2C37.4203 43.3778 37.2426 43.4667 37.0649 43.4667H26.9352C26.7575 43.4667 26.5798 43.3778 26.4021 43.2C26.2244 43.0222 26.1355 42.8222 26.1355 42.6C26.1355 42.3778 26.2244 42.2 26.4021 42.0667C26.5798 41.9333 26.7575 41.8667 26.9352 41.8667H37.0649C37.2426 41.8667 37.4203 41.9333 37.598 42.0667C37.7757 42.2 37.8646 42.4 37.8646 42.6667ZM27.3351 30.1333C27.6017 30.1333 27.8016 30.0667 27.9349 29.9333C28.0682 29.8 28.1348 29.6222 28.1348 29.4C28.1348 29.1778 28.0682 28.9778 27.9349 28.8C27.8016 28.6222 27.6239 28.5333 27.4017 28.5333C27.1796 28.5333 26.9797 28.6222 26.8019 28.8C26.6242 28.9778 26.5354 29.1778 26.5354 29.4C26.5354 29.6222 26.6242 29.8 26.8019 29.9333C26.9797 30.0667 27.1574 30.1333 27.3351 30.1333Z" stroke="#0E0E0E" stroke-width="2" mask="url(#path-2-inside-1_146_57146)"/>
</svg>
