<svg width="40" height="40" viewBox="0 0 40 40" fill="none" xmlns="http://www.w3.org/2000/svg">
<mask id="path-1-inside-1_293_31615" fill="white">
<path d="M34.5276 6.26667H39.1926C39.4592 6.26667 39.6591 6.17778 39.7924 6C39.9257 5.82222 39.9923 5.64445 39.9923 5.46667V0.800004C39.9923 0.533337 39.9257 0.333336 39.7924 0.200001C39.6591 0.0666699 39.4592 4.76837e-07 39.1926 4.76837e-07H34.5276C34.3499 4.76837e-07 34.1722 0.0666699 33.9945 0.200001C33.8168 0.333336 33.7279 0.533337 33.7279 0.800004V2.26667H23.0651V0.800004C23.0651 0.533337 22.9985 0.333336 22.8652 0.200001C22.7319 0.0666699 22.532 4.76837e-07 22.2654 4.76837e-07H17.7337C17.4672 4.76837e-07 17.2672 0.0666699 17.1339 0.200001C17.0007 0.333336 16.934 0.533337 16.934 0.800004V2.26667H6.27122V0.800004C6.27122 0.533337 6.18237 0.333336 6.00465 0.200001C5.82694 0.0666699 5.64923 4.76837e-07 5.47152 4.76837e-07H0.806545C0.539975 4.76837e-07 0.340048 0.0666699 0.206763 0.200001C0.0734784 0.333336 0.00683594 0.533337 0.00683594 0.800004V5.46667C0.00683594 5.64445 0.0734784 5.82222 0.206763 6C0.340048 6.17778 0.539975 6.26667 0.806545 6.26667H5.47152C5.64923 6.26667 5.82694 6.17778 6.00465 6C6.18237 5.82222 6.27122 5.64445 6.27122 5.46667V3.86667H12.6689C10.3586 4.93333 8.35935 6.44445 6.67108 8.4C5.33823 9.91111 4.31638 11.6 3.60553 13.4667C2.89467 15.3333 2.49482 17.2444 2.40596 19.2H0.806545C0.539975 19.2 0.340048 19.2889 0.206763 19.4667C0.0734784 19.6444 0.00683594 19.8222 0.00683594 20V24.6667C0.00683594 24.8444 0.0734784 25.0222 0.206763 25.2C0.340048 25.3778 0.539975 25.4667 0.806545 25.4667H5.47152C5.64923 25.4667 5.82694 25.3778 6.00465 25.2C6.18237 25.0222 6.27122 24.8444 6.27122 24.6667V20C6.27122 19.8222 6.18237 19.6444 6.00465 19.4667C5.82694 19.2889 5.64923 19.2 5.47152 19.2H3.8721C4.04981 16.8 4.71623 14.5333 5.87137 12.4C7.02651 10.2667 8.55928 8.48889 10.4697 7.06667C12.3801 5.64445 14.5349 4.66667 16.934 4.13334V5.46667C16.934 5.64445 17.0007 5.82222 17.1339 6C17.2672 6.17778 17.4672 6.26667 17.7337 6.26667H22.2654C22.532 6.26667 22.7319 6.17778 22.8652 6C22.9985 5.82222 23.0651 5.64445 23.0651 5.46667V4.13334C25.4642 4.66667 27.619 5.64445 29.5294 7.06667C31.4398 8.48889 32.9726 10.2667 34.1278 12.4C35.2829 14.5333 35.9493 16.8 36.127 19.2H34.5276C34.3499 19.2 34.1722 19.2889 33.9945 19.4667C33.8168 19.6444 33.7279 19.8222 33.7279 20V24.6667C33.7279 24.8444 33.8168 25.0222 33.9945 25.2C34.1722 25.3778 34.3499 25.4667 34.5276 25.4667H39.1926C39.4592 25.4667 39.6591 25.3778 39.7924 25.2C39.9257 25.0222 39.9923 24.8444 39.9923 24.6667V20C39.9923 19.8222 39.9257 19.6444 39.7924 19.4667C39.6591 19.2889 39.4592 19.2 39.1926 19.2H37.5932C37.5043 17.2444 37.1045 15.3333 36.3936 13.4667C35.6828 11.6 34.6609 9.91111 33.3281 8.4C31.6398 6.44445 29.6405 4.93333 27.3302 3.86667H33.7279V5.46667C33.7279 5.64445 33.8168 5.82222 33.9945 6C34.1722 6.17778 34.3499 6.26667 34.5276 6.26667ZM4.67181 4.66667H1.60625V1.6H4.67181V4.66667ZM4.67181 23.8667H1.60625V20.8H4.67181V23.8667ZM38.3929 23.8667H35.3273V20.8H38.3929V23.8667ZM21.599 4.66667H18.4001V1.6H21.599V4.66667ZM35.3273 1.6H38.3929V4.66667H35.3273V1.6ZM20.666 8.66667C20.4883 8.4 20.2661 8.26667 19.9996 8.26667C19.733 8.26667 19.5109 8.4 19.3331 8.66667L16.1343 14.5333C15.9566 14.7111 15.9122 14.9111 16.001 15.1333C16.0899 15.3556 16.2232 15.5111 16.4009 15.6C16.5786 15.6889 16.7785 15.7111 17.0007 15.6667C17.2228 15.6222 17.3783 15.4667 17.4672 15.2L19.1999 12V17.7333C18.6667 17.9111 18.2224 18.2444 17.867 18.7333C17.5116 19.2222 17.3339 19.8 17.3339 20.4667C17.3339 21.1333 17.6004 21.7111 18.1336 22.2C18.6667 22.6889 19.2887 22.9333 19.9996 22.9333C20.7104 22.9333 21.3324 22.6889 21.8656 22.2C22.3987 21.7111 22.6653 21.1333 22.6653 20.4667C22.6653 19.8 22.4876 19.2222 22.1321 18.7333C21.7767 18.2444 21.3324 17.9111 20.7993 17.7333V12L26.1307 21.7333C24.3535 23.6 23.1984 25.7778 22.6653 28.2667H17.3339C16.8007 25.7778 15.6456 23.6 13.8685 21.7333L14.8015 20.1333C14.8903 19.9556 14.8903 19.7556 14.8015 19.5333C14.7126 19.3111 14.5793 19.1556 14.4016 19.0667C14.2239 18.9778 14.0462 18.9556 13.8685 19C13.6907 19.0444 13.513 19.1556 13.3353 19.3333L12.269 21.4667C12.0025 21.8222 12.0469 22.1778 12.4023 22.5333C14.0906 24.0444 15.2013 25.9556 15.7345 28.2667H14.9347C14.3127 28.2667 13.7796 28.4889 13.3353 28.9333C12.891 29.3778 12.6689 29.9556 12.6689 30.6667C12.6689 31.1111 12.78 31.5111 13.0021 31.8667C13.2243 32.2222 13.513 32.4889 13.8685 32.6667V39.2C13.8685 39.4667 13.9573 39.6667 14.135 39.8C14.3127 39.9333 14.5127 40 14.7348 40C14.957 40 15.1347 39.9333 15.268 39.8C15.4012 39.6667 15.4679 39.4667 15.4679 39.2V32.9333H24.5313V39.2C24.5313 39.4667 24.5979 39.6667 24.7312 39.8C24.8645 39.9333 25.0422 40 25.2643 40C25.4865 40 25.6864 39.9333 25.8641 39.8C26.0418 39.6667 26.1307 39.4667 26.1307 39.2V32.6667C26.4861 32.4889 26.7749 32.2222 26.997 31.8667C27.2192 31.5111 27.3302 31.1111 27.3302 30.6667C27.3302 29.9556 27.1081 29.3778 26.6638 28.9333C26.2195 28.4889 25.6864 28.2667 25.0644 28.2667H24.2647C24.7978 25.9556 25.9085 24.0444 27.5968 22.5333C27.9522 22.1778 27.9967 21.8222 27.7301 21.4667L20.666 8.66667ZM19.9996 21.4667C19.733 21.4667 19.4886 21.3556 19.2665 21.1333C19.0444 20.9111 18.9333 20.6444 18.9333 20.3333C18.9333 20.0222 19.0444 19.7556 19.2665 19.5333C19.4886 19.3111 19.733 19.2 19.9996 19.2C20.2661 19.2 20.5105 19.3111 20.7326 19.5333C20.9548 19.7556 21.0658 20.0222 21.0658 20.3333C21.0658 20.6444 20.9548 20.9111 20.7326 21.1333C20.5105 21.3556 20.2661 21.4667 19.9996 21.4667ZM25.8641 30.6667C25.8641 30.8444 25.7752 31.0222 25.5975 31.2C25.4198 31.3778 25.2421 31.4667 25.0644 31.4667H14.9347C14.757 31.4667 14.5793 31.3778 14.4016 31.2C14.2239 31.0222 14.135 30.8222 14.135 30.6C14.135 30.3778 14.2239 30.2 14.4016 30.0667C14.5793 29.9333 14.757 29.8667 14.9347 29.8667H25.0644C25.2421 29.8667 25.4198 29.9333 25.5975 30.0667C25.7752 30.2 25.8641 30.4 25.8641 30.6667ZM15.3346 18.1333C15.6012 18.1333 15.8011 18.0667 15.9344 17.9333C16.0677 17.8 16.1343 17.6222 16.1343 17.4C16.1343 17.1778 16.0677 16.9778 15.9344 16.8C15.8011 16.6222 15.6234 16.5333 15.4012 16.5333C15.1791 16.5333 14.9792 16.6222 14.8015 16.8C14.6237 16.9778 14.5349 17.1778 14.5349 17.4C14.5349 17.6222 14.6237 17.8 14.8015 17.9333C14.9792 18.0667 15.1569 18.1333 15.3346 18.1333Z"/>
</mask>
<path d="M34.5276 6.26667H39.1926C39.4592 6.26667 39.6591 6.17778 39.7924 6C39.9257 5.82222 39.9923 5.64445 39.9923 5.46667V0.800004C39.9923 0.533337 39.9257 0.333336 39.7924 0.200001C39.6591 0.0666699 39.4592 4.76837e-07 39.1926 4.76837e-07H34.5276C34.3499 4.76837e-07 34.1722 0.0666699 33.9945 0.200001C33.8168 0.333336 33.7279 0.533337 33.7279 0.800004V2.26667H23.0651V0.800004C23.0651 0.533337 22.9985 0.333336 22.8652 0.200001C22.7319 0.0666699 22.532 4.76837e-07 22.2654 4.76837e-07H17.7337C17.4672 4.76837e-07 17.2672 0.0666699 17.1339 0.200001C17.0007 0.333336 16.934 0.533337 16.934 0.800004V2.26667H6.27122V0.800004C6.27122 0.533337 6.18237 0.333336 6.00465 0.200001C5.82694 0.0666699 5.64923 4.76837e-07 5.47152 4.76837e-07H0.806545C0.539975 4.76837e-07 0.340048 0.0666699 0.206763 0.200001C0.0734784 0.333336 0.00683594 0.533337 0.00683594 0.800004V5.46667C0.00683594 5.64445 0.0734784 5.82222 0.206763 6C0.340048 6.17778 0.539975 6.26667 0.806545 6.26667H5.47152C5.64923 6.26667 5.82694 6.17778 6.00465 6C6.18237 5.82222 6.27122 5.64445 6.27122 5.46667V3.86667H12.6689C10.3586 4.93333 8.35935 6.44445 6.67108 8.4C5.33823 9.91111 4.31638 11.6 3.60553 13.4667C2.89467 15.3333 2.49482 17.2444 2.40596 19.2H0.806545C0.539975 19.2 0.340048 19.2889 0.206763 19.4667C0.0734784 19.6444 0.00683594 19.8222 0.00683594 20V24.6667C0.00683594 24.8444 0.0734784 25.0222 0.206763 25.2C0.340048 25.3778 0.539975 25.4667 0.806545 25.4667H5.47152C5.64923 25.4667 5.82694 25.3778 6.00465 25.2C6.18237 25.0222 6.27122 24.8444 6.27122 24.6667V20C6.27122 19.8222 6.18237 19.6444 6.00465 19.4667C5.82694 19.2889 5.64923 19.2 5.47152 19.2H3.8721C4.04981 16.8 4.71623 14.5333 5.87137 12.4C7.02651 10.2667 8.55928 8.48889 10.4697 7.06667C12.3801 5.64445 14.5349 4.66667 16.934 4.13334V5.46667C16.934 5.64445 17.0007 5.82222 17.1339 6C17.2672 6.17778 17.4672 6.26667 17.7337 6.26667H22.2654C22.532 6.26667 22.7319 6.17778 22.8652 6C22.9985 5.82222 23.0651 5.64445 23.0651 5.46667V4.13334C25.4642 4.66667 27.619 5.64445 29.5294 7.06667C31.4398 8.48889 32.9726 10.2667 34.1278 12.4C35.2829 14.5333 35.9493 16.8 36.127 19.2H34.5276C34.3499 19.2 34.1722 19.2889 33.9945 19.4667C33.8168 19.6444 33.7279 19.8222 33.7279 20V24.6667C33.7279 24.8444 33.8168 25.0222 33.9945 25.2C34.1722 25.3778 34.3499 25.4667 34.5276 25.4667H39.1926C39.4592 25.4667 39.6591 25.3778 39.7924 25.2C39.9257 25.0222 39.9923 24.8444 39.9923 24.6667V20C39.9923 19.8222 39.9257 19.6444 39.7924 19.4667C39.6591 19.2889 39.4592 19.2 39.1926 19.2H37.5932C37.5043 17.2444 37.1045 15.3333 36.3936 13.4667C35.6828 11.6 34.6609 9.91111 33.3281 8.4C31.6398 6.44445 29.6405 4.93333 27.3302 3.86667H33.7279V5.46667C33.7279 5.64445 33.8168 5.82222 33.9945 6C34.1722 6.17778 34.3499 6.26667 34.5276 6.26667ZM4.67181 4.66667H1.60625V1.6H4.67181V4.66667ZM4.67181 23.8667H1.60625V20.8H4.67181V23.8667ZM38.3929 23.8667H35.3273V20.8H38.3929V23.8667ZM21.599 4.66667H18.4001V1.6H21.599V4.66667ZM35.3273 1.6H38.3929V4.66667H35.3273V1.6ZM20.666 8.66667C20.4883 8.4 20.2661 8.26667 19.9996 8.26667C19.733 8.26667 19.5109 8.4 19.3331 8.66667L16.1343 14.5333C15.9566 14.7111 15.9122 14.9111 16.001 15.1333C16.0899 15.3556 16.2232 15.5111 16.4009 15.6C16.5786 15.6889 16.7785 15.7111 17.0007 15.6667C17.2228 15.6222 17.3783 15.4667 17.4672 15.2L19.1999 12V17.7333C18.6667 17.9111 18.2224 18.2444 17.867 18.7333C17.5116 19.2222 17.3339 19.8 17.3339 20.4667C17.3339 21.1333 17.6004 21.7111 18.1336 22.2C18.6667 22.6889 19.2887 22.9333 19.9996 22.9333C20.7104 22.9333 21.3324 22.6889 21.8656 22.2C22.3987 21.7111 22.6653 21.1333 22.6653 20.4667C22.6653 19.8 22.4876 19.2222 22.1321 18.7333C21.7767 18.2444 21.3324 17.9111 20.7993 17.7333V12L26.1307 21.7333C24.3535 23.6 23.1984 25.7778 22.6653 28.2667H17.3339C16.8007 25.7778 15.6456 23.6 13.8685 21.7333L14.8015 20.1333C14.8903 19.9556 14.8903 19.7556 14.8015 19.5333C14.7126 19.3111 14.5793 19.1556 14.4016 19.0667C14.2239 18.9778 14.0462 18.9556 13.8685 19C13.6907 19.0444 13.513 19.1556 13.3353 19.3333L12.269 21.4667C12.0025 21.8222 12.0469 22.1778 12.4023 22.5333C14.0906 24.0444 15.2013 25.9556 15.7345 28.2667H14.9347C14.3127 28.2667 13.7796 28.4889 13.3353 28.9333C12.891 29.3778 12.6689 29.9556 12.6689 30.6667C12.6689 31.1111 12.78 31.5111 13.0021 31.8667C13.2243 32.2222 13.513 32.4889 13.8685 32.6667V39.2C13.8685 39.4667 13.9573 39.6667 14.135 39.8C14.3127 39.9333 14.5127 40 14.7348 40C14.957 40 15.1347 39.9333 15.268 39.8C15.4012 39.6667 15.4679 39.4667 15.4679 39.2V32.9333H24.5313V39.2C24.5313 39.4667 24.5979 39.6667 24.7312 39.8C24.8645 39.9333 25.0422 40 25.2643 40C25.4865 40 25.6864 39.9333 25.8641 39.8C26.0418 39.6667 26.1307 39.4667 26.1307 39.2V32.6667C26.4861 32.4889 26.7749 32.2222 26.997 31.8667C27.2192 31.5111 27.3302 31.1111 27.3302 30.6667C27.3302 29.9556 27.1081 29.3778 26.6638 28.9333C26.2195 28.4889 25.6864 28.2667 25.0644 28.2667H24.2647C24.7978 25.9556 25.9085 24.0444 27.5968 22.5333C27.9522 22.1778 27.9967 21.8222 27.7301 21.4667L20.666 8.66667ZM19.9996 21.4667C19.733 21.4667 19.4886 21.3556 19.2665 21.1333C19.0444 20.9111 18.9333 20.6444 18.9333 20.3333C18.9333 20.0222 19.0444 19.7556 19.2665 19.5333C19.4886 19.3111 19.733 19.2 19.9996 19.2C20.2661 19.2 20.5105 19.3111 20.7326 19.5333C20.9548 19.7556 21.0658 20.0222 21.0658 20.3333C21.0658 20.6444 20.9548 20.9111 20.7326 21.1333C20.5105 21.3556 20.2661 21.4667 19.9996 21.4667ZM25.8641 30.6667C25.8641 30.8444 25.7752 31.0222 25.5975 31.2C25.4198 31.3778 25.2421 31.4667 25.0644 31.4667H14.9347C14.757 31.4667 14.5793 31.3778 14.4016 31.2C14.2239 31.0222 14.135 30.8222 14.135 30.6C14.135 30.3778 14.2239 30.2 14.4016 30.0667C14.5793 29.9333 14.757 29.8667 14.9347 29.8667H25.0644C25.2421 29.8667 25.4198 29.9333 25.5975 30.0667C25.7752 30.2 25.8641 30.4 25.8641 30.6667ZM15.3346 18.1333C15.6012 18.1333 15.8011 18.0667 15.9344 17.9333C16.0677 17.8 16.1343 17.6222 16.1343 17.4C16.1343 17.1778 16.0677 16.9778 15.9344 16.8C15.8011 16.6222 15.6234 16.5333 15.4012 16.5333C15.1791 16.5333 14.9792 16.6222 14.8015 16.8C14.6237 16.9778 14.5349 17.1778 14.5349 17.4C14.5349 17.6222 14.6237 17.8 14.8015 17.9333C14.9792 18.0667 15.1569 18.1333 15.3346 18.1333Z" stroke="#0E0E0E" stroke-width="2" mask="url(#path-1-inside-1_293_31615)"/>
</svg>
