<svg width="40" height="40" viewBox="0 0 40 40" fill="none" xmlns="http://www.w3.org/2000/svg">
<path d="M21.6663 36.6667H10.9845C8.40883 36.6667 6.36019 35.4134 4.52078 33.6609C0.755282 30.0735 6.93768 27.2067 9.29563 25.8026C12.5506 23.8645 16.3208 23.0673 19.9997 23.411" stroke="#141B34" stroke-width="1.5" stroke-linecap="round" stroke-linejoin="round"/>
<path d="M25.833 10.8333C25.833 14.9755 22.4751 18.3333 18.333 18.3333C14.1909 18.3333 10.833 14.9755 10.833 10.8333C10.833 6.6912 14.1909 3.33333 18.333 3.33333C22.4751 3.33333 25.833 6.6912 25.833 10.8333Z" stroke="#141B34" stroke-width="1.5"/>
<path d="M36.1332 37.1941C36.4245 37.4886 36.8993 37.4912 37.1938 37.1998C37.4883 36.9085 37.4908 36.4337 37.1995 36.1392L36.6663 36.6667L36.1332 37.1941ZM33.5922 33.5593L33.0591 34.0868L36.1332 37.1941L36.6663 36.6667L37.1995 36.1392L34.1254 33.0319L33.5922 33.5593ZM35.333 29.3333H36.083C36.083 25.6054 33.0609 22.5833 29.333 22.5833V23.3333V24.0833C32.2325 24.0833 34.583 26.4338 34.583 29.3333H35.333ZM29.333 23.3333V22.5833C25.6051 22.5833 22.583 25.6054 22.583 29.3333H23.333H24.083C24.083 26.4338 26.4335 24.0833 29.333 24.0833V23.3333ZM23.333 29.3333H22.583C22.583 33.0613 25.6051 36.0833 29.333 36.0833V35.3333V34.5833C26.4335 34.5833 24.083 32.2328 24.083 29.3333H23.333ZM29.333 35.3333V36.0833C33.0609 36.0833 36.083 33.0613 36.083 29.3333H35.333H34.583C34.583 32.2328 32.2325 34.5833 29.333 34.5833V35.3333Z" fill="#141B34"/>
</svg>
