<svg width="40" height="40" viewBox="0 0 40 40" fill="none" xmlns="http://www.w3.org/2000/svg">
<path d="M15.6692 32.1034L15.48 32.8292L15.6692 32.1034ZM13.4027 29.3558L12.688 29.5832V29.5832L13.4027 29.3558ZM13.9536 30.808L13.3122 31.1967L13.9536 30.808ZM26.5945 29.3558L27.3092 29.5832V29.5832L26.5945 29.3558ZM26.0436 30.808L26.685 31.1967L26.0436 30.808ZM24.328 32.1034L24.5172 32.8292L24.328 32.1034ZM26.2392 27.7785L26.5213 27.0836L26.2392 27.7785ZM26.7837 28.57L27.5329 28.5357L26.7837 28.57ZM13.758 27.7785L13.4759 27.0836L13.758 27.7785ZM13.2135 28.57L12.4643 28.5357L13.2135 28.57ZM25.0208 32.3329C25.0988 31.9261 24.8322 31.5331 24.4254 31.4552C24.0186 31.3772 23.6256 31.6438 23.5476 32.0506L24.2842 32.1918L25.0208 32.3329ZM24.0995 33.156L23.3629 33.0149V33.0149L24.0995 33.156ZM15.8976 33.156L16.6342 33.0149V33.0149L15.8976 33.156ZM16.4494 32.0506C16.3715 31.6438 15.9785 31.3772 15.5717 31.4552C15.1649 31.5331 14.8983 31.9261 14.9762 32.3329L15.7128 32.1918L16.4494 32.0506ZM18.0176 36.5155L17.7736 37.2247V37.2247L18.0176 36.5155ZM16.4269 35.1542L15.7679 35.5122V35.5122L16.4269 35.1542ZM23.5701 35.1542L24.2292 35.5122V35.5122L23.5701 35.1542ZM21.9794 36.5155L22.2235 37.2247V37.2247L21.9794 36.5155ZM14.5294 27.7181V28.4681H25.4678V27.7181V26.9681H14.5294V27.7181ZM22.8388 32.1918V31.4418H17.1584V32.1918V32.9418H22.8388V32.1918ZM17.1584 32.1918V31.4418C16.3488 31.4418 16.0816 31.4359 15.8585 31.3777L15.6692 32.1034L15.48 32.8292C15.9342 32.9476 16.4339 32.9418 17.1584 32.9418V32.1918ZM13.4027 29.3558L12.688 29.5832C12.9184 30.3074 13.0676 30.7931 13.3122 31.1967L13.9536 30.808L14.595 30.4192C14.4654 30.2055 14.3721 29.9289 14.1174 29.1284L13.4027 29.3558ZM15.6692 32.1034L15.8585 31.3777C15.3443 31.2436 14.8893 30.9048 14.595 30.4192L13.9536 30.808L13.3122 31.1967C13.8017 32.0044 14.5752 32.5932 15.48 32.8292L15.6692 32.1034ZM26.5945 29.3558L25.8798 29.1284C25.6251 29.9289 25.5318 30.2055 25.4022 30.4192L26.0436 30.808L26.685 31.1967C26.9296 30.7931 27.0788 30.3074 27.3092 29.5832L26.5945 29.3558ZM22.8388 32.1918V32.9418C23.5633 32.9418 24.063 32.9476 24.5172 32.8292L24.328 32.1034L24.1387 31.3777C23.9156 31.4359 23.6484 31.4418 22.8388 31.4418V32.1918ZM26.0436 30.808L25.4022 30.4192C25.1079 30.9048 24.6529 31.2436 24.1387 31.3777L24.328 32.1034L24.5172 32.8292C25.422 32.5932 26.1955 32.0044 26.685 31.1967L26.0436 30.808ZM25.4678 27.7181V28.4681C25.6848 28.4681 25.8133 28.4684 25.9071 28.4742C25.9993 28.4799 25.9938 28.4883 25.9571 28.4734L26.2392 27.7785L26.5213 27.0836C26.3357 27.0083 26.1521 26.9865 25.9995 26.9771C25.8486 26.9677 25.6658 26.9681 25.4678 26.9681V27.7181ZM26.5945 29.3558L27.3092 29.5832C27.3722 29.3853 27.4292 29.2069 27.4676 29.0575C27.5063 28.9067 27.5418 28.7292 27.5329 28.5357L26.7837 28.57L26.0345 28.6043C26.0333 28.5779 26.0398 28.587 26.0148 28.6843C25.9895 28.7829 25.9481 28.9138 25.8798 29.1284L26.5945 29.3558ZM26.2392 27.7785L25.9571 28.4734C25.9867 28.4855 26.031 28.528 26.0345 28.6043L26.7837 28.57L27.5329 28.5357C27.5041 27.9052 27.1215 27.3272 26.5213 27.0836L26.2392 27.7785ZM14.5294 27.7181V26.9681C14.3314 26.9681 14.1486 26.9677 13.9977 26.9771C13.8451 26.9865 13.6615 27.0083 13.4759 27.0836L13.758 27.7785L14.0401 28.4734C14.0034 28.4883 13.9979 28.4799 14.0901 28.4742C14.184 28.4684 14.3124 28.4681 14.5294 28.4681V27.7181ZM13.4027 29.3558L14.1174 29.1284C14.0491 28.9138 14.0078 28.7829 13.9824 28.6843C13.9574 28.587 13.9639 28.5779 13.9627 28.6043L13.2135 28.57L12.4643 28.5357C12.4554 28.7292 12.4909 28.9067 12.5296 29.0575C12.568 29.2069 12.625 29.3853 12.688 29.5832L13.4027 29.3558ZM13.758 27.7785L13.4759 27.0836C12.8757 27.3272 12.4931 27.9052 12.4643 28.5357L13.2135 28.57L13.9627 28.6043C13.9662 28.528 14.0105 28.4855 14.0401 28.4734L13.758 27.7785ZM24.2842 32.1918L23.5476 32.0506L23.3629 33.0149L24.0995 33.156L24.8361 33.2971L25.0208 32.3329L24.2842 32.1918ZM15.8976 33.156L16.6342 33.0149L16.4494 32.0506L15.7128 32.1918L14.9762 32.3329L15.161 33.2971L15.8976 33.156ZM19.9985 36.6654V35.9154C18.9107 35.9154 18.5498 35.9054 18.2617 35.8063L18.0176 36.5155L17.7736 37.2247C18.357 37.4255 19.0262 37.4154 19.9985 37.4154V36.6654ZM15.8976 33.156L15.161 33.2971C15.3527 34.298 15.4722 34.9679 15.7679 35.5122L16.4269 35.1542L17.0859 34.7962C16.929 34.5072 16.8464 34.1227 16.6342 33.0149L15.8976 33.156ZM18.0176 36.5155L18.2617 35.8063C17.7709 35.6374 17.3492 35.2808 17.0859 34.7962L16.4269 35.1542L15.7679 35.5122C16.2045 36.316 16.9169 36.9298 17.7736 37.2247L18.0176 36.5155ZM24.0995 33.156L23.3629 33.0149C23.1506 34.1227 23.0681 34.5072 22.9111 34.7962L23.5701 35.1542L24.2292 35.5122C24.5249 34.9679 24.6443 34.298 24.8361 33.2971L24.0995 33.156ZM19.9985 36.6654V37.4154C20.9708 37.4154 21.64 37.4255 22.2235 37.2247L21.9794 36.5155L21.7353 35.8063C21.4473 35.9054 21.0864 35.9154 19.9985 35.9154V36.6654ZM23.5701 35.1542L22.9111 34.7962C22.6478 35.2808 22.2262 35.6374 21.7353 35.8063L21.9794 36.5155L22.2235 37.2247C23.0802 36.9298 23.7925 36.316 24.2292 35.5122L23.5701 35.1542Z" fill="#0E0E0E"/>
<path d="M10.1493 25C9.51861 23.5824 9.16699 22.0051 9.16699 20.3432C9.16699 14.1706 14.0172 9.16669 20.0003 9.16669C25.9834 9.16669 30.8337 14.1706 30.8337 20.3432C30.8337 22.0051 30.482 23.5824 29.8514 25" stroke="#0E0E0E" stroke-width="1.5" stroke-linecap="round"/>
<path d="M20 3.33331V4.99998" stroke="#0E0E0E" stroke-width="1.5" stroke-linecap="round" stroke-linejoin="round"/>
<path d="M36.667 20L35.0003 20" stroke="#0E0E0E" stroke-width="1.5" stroke-linecap="round" stroke-linejoin="round"/>
<path d="M5 20L3.33333 20" stroke="#0E0E0E" stroke-width="1.5" stroke-linecap="round" stroke-linejoin="round"/>
<path d="M31.7842 8.2149L30.6057 9.39342" stroke="#0E0E0E" stroke-width="1.5" stroke-linecap="round" stroke-linejoin="round"/>
<path d="M9.39453 9.3941L8.21602 8.21559" stroke="#0E0E0E" stroke-width="1.5" stroke-linecap="round" stroke-linejoin="round"/>
</svg>
