<svg width="40" height="40" viewBox="0 0 40 40" fill="none" xmlns="http://www.w3.org/2000/svg">
<path d="M34.6234 30C35.8722 30 36.8656 29.2141 37.7574 28.1152C39.5832 25.8657 36.5855 24.0681 35.4423 23.1877C34.28 22.2927 32.9824 21.7857 31.6667 21.6667M30 18.3333C32.3012 18.3333 34.1667 16.4679 34.1667 14.1667C34.1667 11.8655 32.3012 10 30 10" stroke="#141B34" stroke-width="1.5" stroke-linecap="round"/>
<path d="M5.37692 30C4.12809 30 3.13477 29.2141 2.2429 28.1152C0.41714 25.8657 3.41478 24.0681 4.55807 23.1877C5.72028 22.2927 7.01796 21.7857 8.33366 21.6667M9.16699 18.3333C6.86581 18.3333 5.00033 16.4679 5.00033 14.1667C5.00033 11.8655 6.86581 10 9.16699 10" stroke="#141B34" stroke-width="1.5" stroke-linecap="round"/>
<path d="M13.4733 25.1853C11.7704 26.2383 7.3053 28.3885 10.0248 31.079C11.3533 32.3934 12.8329 33.3333 14.693 33.3333H25.3076C27.1678 33.3333 28.6474 32.3934 29.9758 31.079C32.6953 28.3885 28.2303 26.2383 26.5273 25.1853C22.5339 22.716 17.4668 22.716 13.4733 25.1853Z" stroke="#141B34" stroke-width="1.5" stroke-linecap="round" stroke-linejoin="round"/>
<path d="M25.8337 12.5C25.8337 15.7217 23.222 18.3333 20.0003 18.3333C16.7787 18.3333 14.167 15.7217 14.167 12.5C14.167 9.27834 16.7787 6.66667 20.0003 6.66667C23.222 6.66667 25.8337 9.27834 25.8337 12.5Z" stroke="#141B34" stroke-width="1.5"/>
</svg>
