<svg width="40" height="40" viewBox="0 0 40 40" fill="none" xmlns="http://www.w3.org/2000/svg">
<path d="M4.16699 20C4.16699 12.5361 4.16699 8.80413 6.48573 6.48539C8.80447 4.16666 12.5364 4.16666 20.0003 4.16666C27.4642 4.16666 31.1962 4.16666 33.5149 6.48539C35.8337 8.80413 35.8337 12.5361 35.8337 20C35.8337 27.4639 35.8337 31.1958 33.5149 33.5146C31.1962 35.8333 27.4642 35.8333 20.0003 35.8333C12.5364 35.8333 8.80447 35.8333 6.48573 33.5146C4.16699 31.1958 4.16699 27.4639 4.16699 20Z" stroke="#0E0E0E" stroke-width="1.5"/>
<path d="M4.16699 15H35.8337" stroke="#0E0E0E" stroke-width="1.5" stroke-linejoin="round"/>
<path d="M21.667 21.6667H28.3337" stroke="#0E0E0E" stroke-width="1.5" stroke-linecap="round" stroke-linejoin="round"/>
<path d="M21.667 28.3333H25.0003" stroke="#0E0E0E" stroke-width="1.5" stroke-linecap="round" stroke-linejoin="round"/>
<path d="M11.6667 10H11.6816" stroke="#0E0E0E" stroke-width="2" stroke-linecap="round" stroke-linejoin="round"/>
<path d="M18.3327 10H18.3477" stroke="#0E0E0E" stroke-width="2" stroke-linecap="round" stroke-linejoin="round"/>
<path d="M15 15V35.8333" stroke="#0E0E0E" stroke-width="1.5" stroke-linecap="round" stroke-linejoin="round"/>
</svg>
